<?xml version="1.0" encoding="utf-8"?>
<!-- Generator: Adobe Illustrator 19.2.0, SVG Export Plug-In . SVG Version: 6.00 Build 0)  -->
<svg version="1.1" id="Layer_1" xmlns="http://www.w3.org/2000/svg" xmlns:xlink="http://www.w3.org/1999/xlink" x="0px" y="0px"
	 viewBox="0 0 450 80" style="enable-background:new 0 0 450 80;" xml:space="preserve">
<style type="text/css">
	.st0{fill:#457DC0;}
</style>
<g>
	<path class="st0" d="M21.6,36.7c0.9,5.6,3.5,10.4,7.1,14.6C37.9,62,52.8,65.5,65.6,59c6-3.1,10.7-7.5,14-13.4
		c0.4-0.8,0.4-1.1-0.5-1.5c-1.5-0.5-2.8-1.2-4.3-1.8c-1.5-0.7-1.5-0.7-2.4,0.7c-4.6,7.3-11.1,11.5-19.9,11.5
		c-6.9,0-13.1-2.1-17.7-7.5c-4.9-5.7-6.6-12.4-5.3-19.8c1-5.8,4.2-10.3,8.7-13.9c7.4-5.9,18-6.5,26.1-1.5c3.7,2.2,6.4,5.4,8.7,8.9
		c0.5,0.7,0.8,0.7,1.5,0.4c1.4-0.7,2.8-1.4,4.3-2c1.4-0.6,1.4-0.6,0.7-2c-3-5.4-7.2-9.3-12.5-12.2c-4.4-2.5-9-4-14.1-4.1
		c-5.5-0.1-10.5,1.4-15.2,4.1c-10.4,6-16.1,14.9-16.5,27C21.2,33.5,21.3,35.1,21.6,36.7z"/>
	<path class="st0" d="M57.3,23c1,0.6,1.9,1.3,2.7,2c0.3,0.3,0.6,0.5,1,0.2c1.4-1,2.8-2,4.2-3c0.5-0.4,0.4-0.7,0-1.1
		c-4-4.5-8.8-7-15-6.2c-9.2,1-16.1,10-14.7,19.2c1.3,8.4,8.2,14.4,16.9,14.3c5.3,0.2,9.4-2.6,12.8-6.7c0.4-0.5,0.3-0.7-0.2-0.9
		c-1.3-0.8-2.6-1.6-3.8-2.5c-0.8-0.6-1.3-0.6-2,0.2c-3.9,3.9-8.9,4.3-13.1,1.3c-4.3-3.1-5.4-9.3-2.4-13.8
		C46.2,22.3,52.1,19.7,57.3,23z"/>
	<path class="st0" d="M80.4,73.6c-1.9,0.6-3.7,0.8-5.7,0.5c-3-0.5-5.8-1.7-8.6-2.9c-4.2-1.7-8.4-2.8-12.9-1.4
		c-0.8,0.2-1.6,0.2-2.3,0c-2.2-0.8-4.4-0.7-6.6-0.3c-2.9,0.4-5.5,1.6-8.1,2.9c-3.8,1.8-7.8,2.7-12,1.5c-0.6-0.2-1.1-0.5-1.8-0.3
		c4.3,4,10.1,4.9,15.5,2.4c2.4-1.1,4.5-2.7,6.7-4.3c1.1-0.8,2.3-1.3,3.6-1.4c0.7-0.1,1.2,0.1,1.7,0.6c-0.9,0.7-1.8,1.2-2.7,1.6
		c-2.9,1.4-5.3,3.2-7.4,5.6c-0.4,0.5-0.5,0.8,0.1,1.1c0.5,0.3,0.9,1.3,1.7,0.4c1.7-2.1,3.7-3.7,5.7-5.5c1.1-1,2.2-1.9,3.6-2.6
		C52,71,53,71.1,54,71.8c3.1,2.3,6.2,4.6,8.8,7.5c1,1.1,1.4,0,1.9-0.4c0.7-0.4,0.2-0.9-0.2-1.3c-2.6-2.4-5.4-4.4-8.4-6.2
		c-0.4-0.3-1-0.5-1.3-0.9c0.5-0.2,0.9-0.3,1.4-0.3c2.2-0.1,3.8,1,5.4,2.3c2.9,2.4,6.1,4,9.9,4.4c3.9,0.4,7.2-1,10.2-3.5
		C80.8,73.3,80.6,73.5,80.4,73.6z"/>
	<path class="st0" d="M24.9,66.3c-2-2.1-3.1-4.7-4.1-7.3c-0.9-2.4-1.7-4.9-3-7.2c-0.7-1.1-1.4-2.2-2.6-3.1c0.5,2.7,1,5.3,1.5,7.9
		c0.5,2.6,1.5,5.1,3.7,6.8c0.3,0.2,0.5,0.4,0.5,0.9c-3.3-2.6-7.1-4.2-10.7-6.1c-1.9-1-4-1.8-5.2-3.7c-0.1-0.2-0.4-0.5-0.8-0.4
		C7.6,63.3,17.8,66.6,24.9,66.3z"/>
	<path class="st0" d="M92.9,58.4c-2.9,1.3-5.8,2.5-8.1,4.8c-0.4,0.4-1,0.7-1.8,0.7c5.2-3.9,5-9.8,6.1-15.3c-0.7,0.2-0.9,0.6-1.1,1
		c-1.3,1.7-2.1,3.6-3,5.5c-1.6,3.7-2.6,7.7-5.5,10.7c-0.1,0.1-0.2,0.3-0.1,0.5s0.3,0.2,0.5,0.1c2.2-0.6,4.4-0.6,6.6-1.2
		c5.4-1.6,9.9-4.5,12.9-9.4c0.4-0.7,0.8-1.4,0.8-2.4c-0.2,0.1-0.3,0.2-0.4,0.2C97.8,55.8,95.4,57.3,92.9,58.4z"/>
	<path class="st0" d="M6.6,53.1c2,1.7,4.4,2.9,6.6,4.4c0.7,0.4,1.3,0.8,2.3,0.9c-0.7-1.5-1.2-2.9-1.5-4.5c-0.7-3.5-0.7-7-1.2-10.5
		c-0.3-1.7-0.5-3.3-1.4-5.1c-0.2,2.3-0.6,4.3-1,6.3c-0.6,2.9-0.7,5.8,0.9,8.5c0.1,0.2,0.2,0.4,0,0.7c-2.1-2.8-4.3-5.6-6.9-8
		c-1.7-1.6-3.3-3.4-4.3-5.6C0,45.6,2.6,49.8,6.6,53.1z"/>
	<path class="st0" d="M98.7,46.6c-2,1.8-3.3,4.1-5.4,5.9c1.7-4.8,0.6-9.5-0.6-14.2c-0.3,0.3-0.4,0.5-0.4,0.8c-0.6,1.9-0.8,3.9-1,5.9
		c-0.5,4.4-0.4,8.9-2.5,13c0.6,0.1,0.9-0.1,1.2-0.3c2.7-1.7,5.4-3.3,7.9-5.3c2.7-2.1,4.7-4.7,5.7-8c0.4-1.5,0.5-3.2,0.1-4.1
		C102.6,42.9,100.7,44.8,98.7,46.6z"/>
	<path class="st0" d="M37.6,69.2c-0.2-0.1-0.2-0.2-0.3-0.2c-3.3-0.7-5.8-2.6-8.2-4.9c-1.7-1.6-3.3-3.3-5.2-4.6
		c-0.4-0.3-0.7-0.6-1.3-0.4c1,1.8,1.9,3.6,2.9,5.3c1.2,2,2.7,3.6,5.2,4c0.3,0,0.8,0.1,1,0.5c-0.2,0-0.4,0-0.5,0
		c-2.4-0.4-4.8-0.5-7.3-0.7c-2.6-0.2-5.1-0.4-7.6-1c-1.3-0.3-2.5-0.9-3.8-1.6c0.1,0.3,0.1,0.3,0.1,0.3c0.2,0.3,0.5,0.5,0.7,0.7
		c3.2,3.6,7.2,5.3,11.9,5.2C29.5,71.8,33.5,70.4,37.6,69.2z"/>
	<path class="st0" d="M74.3,68.7c-0.6,0.1-1.3,0.3-2.2,0c5.7-1.4,7.8-5.7,9.5-10.4c-4.9,3.7-8.6,9-14.9,10.9
		c2.6,0.5,5.1,1.2,7.6,1.8c6.4,1.5,12,0.2,16.7-4.6c0.4-0.4,0.8-0.8,0.9-1.5c-2.1,1.7-4.5,2.1-7,2.5C81.4,68,77.8,68,74.3,68.7z"/>
	<path class="st0" d="M6.7,45.4c0.4,0.5,0.8,1.1,1.5,1.6c0-1.7,0.1-3.2,0.4-4.7c0.5-2.8,1.5-5.5,2.3-8.3c0.6-2.2,0.9-4.4,0.7-6.9
		c-1,2.3-2.2,4.2-3.3,6.1c-1.5,2.7-2.4,5.5-1.6,8.6c0.1,0.3,0.2,0.7-0.1,1C5.7,36.5,1.9,31.4,1,25.3c-0.1,0.1-0.2,0.2-0.2,0.3
		c-1.2,3.9-1.1,7.8,0.5,11.6C2.6,40.3,4.6,42.9,6.7,45.4z"/>
	<path class="st0" d="M102,30.7c-1.4,3.2-2.8,6.4-3.7,9.8c-0.1,0.2-0.1,0.5-0.4,0.6c0.3-2.8-0.1-5.4-1.4-7.9
		c-1.2-2.2-2.4-4.3-3.6-6.5c-0.2,1.9,0,3.8,0.5,5.6c0.8,3.5,2.1,6.8,2.7,10.4c0.2,1.3,0.3,2.6,0.4,4c0.9-1.6,1.9-2.8,3-4
		c4.5-4.9,5.6-10.6,4.4-16.9c-0.1-0.3,0-0.7-0.4-0.7c-0.3,0-0.2,0.5-0.2,0.7C103.1,27.5,102.7,29.1,102,30.7z"/>
	<path class="st0" d="M98.5,28.7c-0.8-5.4-4.6-8.3-8.3-11.4c-0.1,0.6,0.1,1,0.2,1.4c0.8,2.5,2.2,4.7,3.7,6.8
		c1.5,2.2,3.2,4.3,4.1,6.9c0.1,0.3,0.2,0.6,0.7,0.5c0.3-1.9,1-3.7,1.8-5.4c2.2-4.8,1.7-9.5-0.6-14.1c-0.3-0.5-0.5-1.1-1.2-1.5
		c0.6,2.5,0.3,4.9,0,7.2c-0.4,2.6-0.7,5.2-0.2,7.8C98.7,27.6,98.7,28,98.5,28.7z"/>
	<path class="st0" d="M5.9,34c0.8-3.4,2.9-6,4.9-8.7c1.5-2.1,2.9-4.3,3.5-6.8c0.1-0.3,0.2-0.7-0.1-1.4c-0.5,1.7-1.8,2.2-2.8,3.1
		c-2.2,1.9-4,4.2-4.9,7c-0.2,0.5-0.1,1-0.5,1.4l-0.1,0.1c-0.1-0.1-0.1-0.2,0-0.3c0.1-1.2,0.2-2.3,0.2-3.5c-0.1-4.2-1-8.3-0.8-12.6
		c-0.4,1-0.9,1.8-1.3,2.7c-1.7,3.7-2.2,7.6-0.9,11.5C4,29,5.2,31.4,5.9,34z"/>
	<path class="st0" d="M7.6,22.2c1.1-2.1,2.7-3.3,4.3-4.5c0.8-0.6,1.7-1.3,2.5-2c2.1-2,4.1-4.1,4.3-7.3c-1,1.4-2.3,2.5-3.7,3.4
		c-1.8,1.2-3.6,2.4-4.8,4.3c-0.2,0.2-0.4,0.5-0.8,0.6c0.3-1.3,0.6-2.5,0.9-3.7c0.7-2.7,0.8-5.5,2.9-7.7c0.1-0.1,0.2-0.3,0.1-0.5
		c-0.2-0.2-0.4,0-0.5,0.1c-2.6,1.7-4.5,3.9-5.2,7c-0.5,2.4-0.2,4.7-0.1,7.1C7.4,20,7.5,20.9,7.6,22.2z"/>
	<path class="st0" d="M90.9,12.5c-1.7-1.3-3.5-2.5-5.1-4.3c0.1,0.4,0.1,0.6,0.1,0.7c0.8,3.2,2.9,5.3,5.3,7.3c2.1,1.7,4.3,3.3,6,5.9
		c0-3.1,0.1-5.8-0.3-8.6c-0.3-2.3-0.8-4.5-2.2-6.4c-0.7-1-1.6-1.8-2.9-2.3c2.4,3.8,2.1,8.3,3.8,12.3C94.3,15.1,92.7,13.7,90.9,12.5z
		"/>
	<path class="st0" d="M22.9,0c-5.6,1.4-10.2,6.2-10.5,11.8C16.9,8.7,19.6,4.2,22.9,0z"/>
	<path class="st0" d="M92.3,11.4C91.6,5.6,87,0.6,81.7,0.2L83.4,2C86.2,5.3,88.3,9.1,92.3,11.4z"/>
</g>
<g>
	<path d="M133,15.7V4.2h3.8v11.5c0,4.1-3.2,6.7-6.9,6.7c-3.7,0-7-2.6-7-6.7V4.2h3.9v11.5c0,1.8,1.5,3.1,3.1,3.1
		C131.5,18.8,133,17.5,133,15.7z"/>
	<path d="M143.8,22.1h-3.6V10h3.6v1.8c0.6-1.2,2.1-2,3.5-2c2.7,0,4.4,1.7,4.4,5.1v7.3c-0.6,0-3,0-3.6,0v-6.5c0-1.6-0.9-2.4-2.1-2.4
		c-1.3,0-2.2,0.6-2.2,2.5V22.1z"/>
	<path d="M156.7,3.4c1.2,0,2.2,0.9,2.2,2.1s-1,2.1-2.2,2.1c-1.2,0-2.3-0.9-2.3-2.1S155.5,3.4,156.7,3.4z M158.5,22.1h-3.6V10h3.6
		V22.1z"/>
	<path d="M169.1,10v2.9h-2.5v9.3H163v-9.3h-2.2V10h2.2V5.3h3.6V10H169.1z"/>
	<path d="M182.3,19.9c-1.2,1.8-3.5,2.5-5.5,2.5c-3.5,0-6.3-2.5-6.3-6.4s2.9-6.3,6.3-6.3c3.5,0,6.2,2.6,6.2,6.4c0,0.3,0,0.8-0.1,1.1
		H174c0.2,1.4,1.7,2,3,2c1,0,2.1-0.4,2.7-1.1L182.3,19.9z M179.3,14.9c-0.2-1.5-1.5-2.1-2.5-2.1s-2.4,0.5-2.7,2.1H179.3z"/>
	<path d="M194.2,22.1v-1.5c-0.6,1.1-2.1,1.8-3.6,1.8c-3.1,0-5.9-2.5-5.9-6.3c0-3.9,2.8-6.4,5.9-6.4c1.5,0,3,0.6,3.6,1.7V3.4h3.6
		v18.7H194.2z M191.3,13.1c-1.5,0-2.8,1.1-2.8,2.9c0,1.8,1.3,2.9,2.8,2.9c1.5,0,2.8-1.2,2.8-2.9C194.1,14.2,192.8,13.1,191.3,13.1z"
		/>
	<path d="M221.3,22.1h-3.4l-6.2-10.8v10.8h-3.8V4.2h3.5l6.1,10.7V4.2h3.8V22.1z"/>
	<path d="M233.8,20.7c-0.8,1.2-2.6,1.6-3.5,1.6c-3.1,0-6.2-2.4-6.2-6.3c0-3.9,3.1-6.3,6.2-6.3c0.8,0,2.6,0.3,3.5,1.6V10h3.6v12.1
		h-3.6V20.7z M230.9,18.9c1.5,0,2.9-1.1,2.9-2.9c0-1.8-1.5-2.9-2.9-2.9c-1.5,0-3,1.1-3,2.9C227.8,17.8,229.4,18.9,230.9,18.9z"/>
	<path d="M248,10v2.9h-2.5v9.3h-3.6v-9.3h-2.2V10h2.2V5.3h3.6V10H248z"/>
	<path d="M252,3.4c1.2,0,2.2,0.9,2.2,2.1s-1,2.1-2.2,2.1c-1.2,0-2.3-0.9-2.3-2.1S250.8,3.4,252,3.4z M253.8,22.1h-3.6V10h3.6V22.1z"
		/>
	<path d="M256.4,16c0-3.8,2.9-6.3,6.3-6.3c3.4,0,6.3,2.5,6.3,6.3s-2.9,6.3-6.3,6.3C259.3,22.3,256.4,19.8,256.4,16z M265.5,16
		c0-1.6-1.2-2.8-2.8-2.8c-1.5,0-2.7,1.1-2.7,2.8c0,1.7,1.2,2.8,2.7,2.8C264.2,18.8,265.5,17.7,265.5,16z"/>
	<path d="M275.2,22.1h-3.6V10h3.6v1.8c0.6-1.2,2.1-2,3.5-2c2.7,0,4.4,1.7,4.4,5.1v7.3c-0.6,0-3,0-3.6,0v-6.5c0-1.6-0.9-2.4-2.1-2.4
		c-1.3,0-2.2,0.6-2.2,2.5V22.1z"/>
	<path d="M289.5,17.1c-3.6-1-3.7-2.8-3.6-4c0-1.8,2.2-3.5,4.7-3.5c2.4,0,5,1.1,5,4h-3.4c0-0.9-0.8-1.1-1.4-1.1
		c-0.8,0-1.3,0.4-1.3,0.9c0,0.4,0.3,0.7,1.1,0.9l2.1,0.5c2.9,0.8,3.3,2.8,3.3,3.5c0,2.6-2.7,3.8-5.3,3.8c-2.5,0-5-1.5-5.1-4.2h3.4
		c0,0.7,0.8,1.4,1.8,1.4c0.8,0,1.5-0.4,1.5-1c0-0.5-0.3-0.8-1.2-1L289.5,17.1z"/>
	<path d="M133.9,28.4v2.3h-8v5.7h6.4v2.3h-6.4v7.7h-2.4V28.4H133.9z"/>
	<path d="M138.1,46.3h-2.4V34.2h2.4v2.7c0.6-2.1,1.8-3,3.4-3c0.9,0,1.8,0.2,2.1,0.5l-0.4,2.2c-0.7-0.3-1.3-0.4-1.8-0.4
		c-2.3,0-3.3,2.5-3.3,5.7V46.3z"/>
	<path d="M155.3,44.4c-0.8,1.4-2.6,2.1-4.3,2.1c-3.3,0-6.2-2.5-6.2-6.3c0-3.9,2.8-6.3,6.2-6.3c1.7,0,3.5,0.7,4.3,2.1v-1.8h2.3v12.1
		h-2.3V44.4z M151.2,36.2c-2.2,0-4,1.6-4,4c0,2.4,1.8,4.1,4,4.1c2.2,0,4-1.5,4-4.1C155.3,37.6,153.2,36.2,151.2,36.2z"/>
	<path d="M172.3,39.7v6.6c-0.4,0-2,0-2.4,0v-6.9c0-2-1-3.2-2.6-3.2c-1.7,0-3.4,1-3.4,3.5v6.6h-2.4V34.2h2.4V36c0.7-1.4,2.4-2,3.4-2
		c0.5,0,0.9,0,1.3,0.1c1.5,0.2,2.6,1,3.2,2.4c1.1-2.2,3-2.5,4.2-2.5c3,0,4.7,2,4.7,5.4v7h-2.4v-6.9c0-2-1-3.2-2.8-3.2
		C173.5,36.2,172.3,37.7,172.3,39.7z"/>
	<path d="M195.9,41.1h-9.9c0.3,2,1.9,3.3,3.9,3.3c1.5,0,2.8-0.7,3.5-1.9c0.6,0.3,1.4,0.5,2,0.8c-1,2.1-3.2,3.2-5.6,3.2
		c-3.5,0-6.2-2.5-6.2-6.4s2.8-6.3,6.2-6.3s6,2.4,6,6.3C195.9,40.5,195.9,40.9,195.9,41.1z M193.6,39.3c-0.3-2-1.7-3.2-3.7-3.2
		c-2,0-3.6,1.2-3.8,3.2H193.6z"/>
	<path d="M210.3,46.3l-3.3-8.9l-3.2,8.9h-1.9l-4.6-12.1h2.5l3,8.5l3-8.5h2.3l3,8.5l3-8.5h2.5l-4.5,12.1H210.3z"/>
	<path d="M218.2,40.2c0-3.8,2.9-6.3,6.3-6.3s6.4,2.4,6.4,6.3s-2.9,6.4-6.4,6.4S218.2,44,218.2,40.2z M228.6,40.2c0-2.4-1.8-4-4-4
		c-2.2,0-4,1.5-4,4c0,2.5,1.8,4.1,4,4.1C226.8,44.3,228.6,42.7,228.6,40.2z"/>
	<path d="M236.5,46.3h-2.4V34.2h2.4v2.7c0.6-2.1,1.8-3,3.4-3c0.9,0,1.8,0.2,2.1,0.5l-0.4,2.2c-0.7-0.3-1.3-0.4-1.8-0.4
		c-2.3,0-3.3,2.5-3.3,5.7V46.3z"/>
	<path d="M246.7,46.3h-2.3V27.6h2.3v10.8l4.2-4.2h3.2l-5.2,5.3l6.4,6.9h-3.1l-5.5-5.9V46.3z"/>
	<path d="M279.3,43.5c-1.6,1.9-4,3.1-6.8,3.1c-5.1,0-9.1-4.1-9.1-9.2c0-5.1,4-9.2,9.1-9.2c2.8,0,5.1,1.2,6.7,3l-1.8,1.5
		c-1.2-1.3-2.9-2.2-4.9-2.2c-3.7,0-6.7,3.1-6.7,6.9s2.9,6.8,6.7,6.8c2,0,3.8-0.9,5-2.3L279.3,43.5z"/>
	<path d="M281.1,40.2c0-3.8,2.9-6.3,6.3-6.3c3.5,0,6.4,2.4,6.4,6.3s-2.9,6.4-6.4,6.4C284,46.6,281.1,44,281.1,40.2z M291.5,40.2
		c0-2.4-1.8-4-4-4c-2.2,0-4,1.5-4,4c0,2.5,1.8,4.1,4,4.1C289.7,44.3,291.5,42.7,291.5,40.2z"/>
	<path d="M299.4,46.3H297V34.2h2.4V36c0.7-1.5,2.5-2.1,3.8-2.1c3,0,4.7,2,4.7,5.4v7c-0.4,0-2,0-2.4,0v-6.9c0-2-1-3.2-2.7-3.2
		c-1.7,0-3.4,1-3.4,3.5V46.3z"/>
	<path d="M312.4,34.2l3.7,9.1l3.7-9.1h2.5l-5.1,12.1h0h-2.3l-5-12.1H312.4z"/>
	<path d="M335.8,41.1H326c0.3,2,1.9,3.3,3.9,3.3c1.5,0,2.8-0.7,3.5-1.9c0.6,0.3,1.4,0.5,2,0.8c-1,2.1-3.2,3.2-5.6,3.2
		c-3.5,0-6.2-2.5-6.2-6.4s2.8-6.3,6.2-6.3c3.5,0,6,2.4,6,6.3C335.8,40.5,335.8,40.9,335.8,41.1z M333.5,39.3c-0.3-2-1.7-3.2-3.7-3.2
		c-2,0-3.6,1.2-3.8,3.2H333.5z"/>
	<path d="M341.2,46.3h-2.4V34.2h2.4V36c0.7-1.5,2.5-2.1,3.8-2.1c3,0,4.7,2,4.7,5.4v7c-0.4,0-2,0-2.4,0v-6.9c0-2-1-3.2-2.7-3.2
		c-1.7,0-3.4,1-3.4,3.5V46.3z"/>
	<path d="M359.3,34.2v2h-2.6v10.1h-2.4V36.2h-2.2v-2h2.2v-4.6h2.4v4.6H359.3z"/>
	<path d="M363.2,28.2c0.9,0,1.6,0.6,1.6,1.5c0,0.9-0.7,1.5-1.6,1.5c-0.9,0-1.6-0.6-1.6-1.5C361.5,28.8,362.3,28.2,363.2,28.2z
		 M364.4,34.2H362v12.1h2.3V34.2z"/>
	<path d="M367.5,40.2c0-3.8,2.9-6.3,6.3-6.3c3.5,0,6.4,2.4,6.4,6.3s-2.9,6.4-6.4,6.4C370.4,46.6,367.5,44,367.5,40.2z M377.9,40.2
		c0-2.4-1.8-4-4-4c-2.2,0-4,1.5-4,4c0,2.5,1.8,4.1,4,4.1C376,44.3,377.9,42.7,377.9,40.2z"/>
	<path d="M385.7,46.3h-2.4V34.2h2.4V36c0.7-1.5,2.5-2.1,3.8-2.1c3,0,4.7,2,4.7,5.4v7c-0.4,0-2,0-2.4,0v-6.9c0-2-1-3.2-2.7-3.2
		c-1.7,0-3.4,1-3.4,3.5V46.3z"/>
	<path d="M404,40.2c0-3.8,2.9-6.3,6.3-6.3c3.5,0,6.4,2.4,6.4,6.3s-2.9,6.4-6.4,6.4C406.8,46.6,404,44,404,40.2z M414.3,40.2
		c0-2.4-1.8-4-4-4c-2.2,0-4,1.5-4,4c0,2.5,1.8,4.1,4,4.1C412.5,44.3,414.3,42.7,414.3,40.2z"/>
	<path d="M422.2,46.3h-2.4V34.2h2.4V36c0.7-1.5,2.5-2.1,3.8-2.1c3,0,4.7,2,4.7,5.4v7c-0.4,0-2,0-2.4,0v-6.9c0-2-1-3.2-2.7-3.2
		c-1.7,0-3.4,1-3.4,3.5V46.3z"/>
	<path d="M138.1,67.7c-1.6,1.9-4,3.1-6.8,3.1c-5.1,0-9.1-4.1-9.1-9.2c0-5.1,4-9.2,9.1-9.2c2.8,0,5.1,1.2,6.7,3l-1.8,1.5
		c-1.2-1.3-2.9-2.2-4.9-2.2c-3.7,0-6.7,3.1-6.7,6.9c0,3.8,2.9,6.8,6.7,6.8c2,0,3.8-0.9,5-2.3L138.1,67.7z"/>
	<path d="M143.1,51.8v18.7h-2.4V51.8H143.1z"/>
	<path d="M148.2,52.4c0.9,0,1.6,0.7,1.6,1.5c0,0.9-0.7,1.5-1.6,1.5c-0.9,0-1.6-0.6-1.6-1.5C146.6,53,147.3,52.4,148.2,52.4z
		 M149.4,58.4h-2.3v12.1h2.3V58.4z"/>
	<path d="M164.1,63.9v6.6c-0.4,0-2,0-2.4,0v-6.9c0-2-1-3.2-2.6-3.2c-1.7,0-3.4,1-3.4,3.5v6.6h-2.4V58.4h2.4v1.8c0.6-1.4,2.4-2,3.4-2
		c0.5,0,0.9,0,1.3,0.1c1.5,0.2,2.6,1,3.2,2.4c1.1-2.2,3-2.5,4.2-2.5c3,0,4.7,2,4.7,5.4v7h-2.4v-6.9c0-2-1-3.2-2.8-3.2
		C165.3,60.4,164.1,61.9,164.1,63.9z"/>
	<path d="M185.9,68.6c-0.8,1.4-2.6,2.1-4.3,2.1c-3.3,0-6.2-2.5-6.2-6.3c0-3.9,2.8-6.3,6.2-6.3c1.7,0,3.5,0.7,4.3,2.1v-1.8h2.3v12.1
		h-2.3V68.6z M181.8,60.4c-2.2,0-4,1.6-4,4c0,2.4,1.8,4.1,4,4.1c2.2,0,4-1.5,4-4.1C185.8,61.8,183.8,60.4,181.8,60.4z"/>
	<path d="M198,58.4v2h-2.6v10.1h-2.4V60.4h-2.2v-2h2.2v-4.6h2.4v4.6H198z"/>
	<path d="M211.9,65.3h-9.9c0.3,2,1.9,3.3,3.9,3.3c1.5,0,2.8-0.7,3.5-1.9c0.6,0.3,1.4,0.5,2,0.8c-1,2.1-3.2,3.2-5.6,3.2
		c-3.5,0-6.2-2.5-6.2-6.4c0-3.8,2.8-6.3,6.2-6.3s6,2.4,6,6.3C211.9,64.7,211.9,65.1,211.9,65.3z M209.6,63.5c-0.3-2-1.7-3.2-3.7-3.2
		c-2,0-3.6,1.2-3.8,3.2H209.6z"/>
	<path d="M236.9,67.7c-1.6,1.9-4,3.1-6.8,3.1c-5.1,0-9.1-4.1-9.1-9.2c0-5.1,4-9.2,9.1-9.2c2.8,0,5.1,1.2,6.7,3l-1.8,1.5
		c-1.2-1.3-2.9-2.2-4.9-2.2c-3.7,0-6.7,3.1-6.7,6.9c0,3.8,2.9,6.8,6.7,6.8c2,0,3.8-0.9,5-2.3L236.9,67.7z"/>
	<path d="M241.8,70.5h-2.4V51.8h2.4v8.4c0.7-1.5,2.7-2.1,4-2.1c3,0,4.9,2,4.9,5.4v7c-0.4,0-2,0-2.4,0v-6.9c0-2-1.2-3.2-2.9-3.2
		s-3.7,0.9-3.7,3.5V70.5z"/>
	<path d="M264.2,68.6c-0.8,1.4-2.6,2.1-4.3,2.1c-3.3,0-6.2-2.5-6.2-6.3c0-3.9,2.8-6.3,6.2-6.3c1.7,0,3.5,0.7,4.3,2.1v-1.8h2.3v12.1
		h-2.3V68.6z M260.1,60.4c-2.2,0-4,1.6-4,4c0,2.4,1.8,4.1,4,4.1c2.2,0,4-1.5,4-4.1C264.2,61.8,262.1,60.4,260.1,60.4z"/>
	<path d="M272.8,70.5h-2.4V58.4h2.4v1.8c0.7-1.5,2.5-2.1,3.8-2.1c3,0,4.7,2,4.7,5.4v7c-0.4,0-2,0-2.4,0v-6.9c0-2-1-3.2-2.7-3.2
		c-1.7,0-3.4,1-3.4,3.5V70.5z"/>
	<path d="M290.4,74.3c2.6,0,4.3-1.5,4.3-5.5c0-0.1,0-0.2,0-0.3c-0.7,1.4-2.6,2.2-4.3,2.2c-3.3,0-6.2-2.4-6.2-6.3
		c0-3.9,2.8-6.4,6.2-6.4c1.7,0,3.5,0.8,4.3,2.2v-1.9h2.3v10.3c0,5.7-2.6,7.9-6.6,7.9c-2.2,0-4.3-1.1-5.5-3.3c0.3-0.1,1.7-0.9,2-1
		C287.7,73.6,289.1,74.3,290.4,74.3z M290.7,60.4c-2.2,0-4,1.7-4,4c0,2.5,1.8,4,4,4c2,0,4-1.4,4-4C294.7,61.8,292.8,60.4,290.7,60.4
		z"/>
	<path d="M312.4,65.3h-9.9c0.3,2,1.9,3.3,3.9,3.3c1.5,0,2.8-0.7,3.5-1.9c0.6,0.3,1.4,0.5,2,0.8c-1,2.1-3.2,3.2-5.6,3.2
		c-3.5,0-6.2-2.5-6.2-6.4c0-3.8,2.8-6.3,6.2-6.3c3.5,0,6,2.4,6,6.3C312.4,64.7,312.4,65.1,312.4,65.3z M310.1,63.5
		c-0.3-2-1.7-3.2-3.7-3.2c-2,0-3.6,1.2-3.8,3.2H310.1z"/>
</g>
</svg>
