<?xml version="1.0" encoding="utf-8"?>
<!-- Generator: Adobe Illustrator 19.2.0, SVG Export Plug-In . SVG Version: 6.00 Build 0)  -->
<svg version="1.1" id="Layer_1" xmlns="http://www.w3.org/2000/svg" xmlns:xlink="http://www.w3.org/1999/xlink" x="0px" y="0px"
	 viewBox="0 0 51 89.2" style="enable-background:new 0 0 51 89.2;" xml:space="preserve">
<style type="text/css">
	.st0{fill:#05147F;stroke:#1D71B8;stroke-miterlimit:10;}
</style>
<g>
	<path class="st0" d="M25.5,0.5c-11.5,0-25,6.5-25,25c0,9,6.4,19.1,12.5,28.8c5.7,8.9,11,17.4,11,24.2v8.8c0,0.8,0.7,1.5,1.5,1.5
		s1.5-0.7,1.5-1.5v-8.8c0-6.8,5.4-15.2,11-24.2c6.2-9.7,12.5-19.8,12.5-28.8C50.5,7,37,0.5,25.5,0.5z M25.5,41.7
		c-8.1,0-14.7-6.6-14.7-14.7s6.6-14.7,14.7-14.7S40.2,18.9,40.2,27S33.6,41.7,25.5,41.7z"/>
</g>
</svg>
