<?xml version="1.0" encoding="utf-8"?>
<!-- Generator: Adobe Illustrator 19.2.0, SVG Export Plug-In . SVG Version: 6.00 Build 0)  -->
<svg version="1.1" id="Layer_1" xmlns="http://www.w3.org/2000/svg" xmlns:xlink="http://www.w3.org/1999/xlink" x="0px" y="0px"
	 viewBox="0 0 35 61" style="enable-background:new 0 0 35 61;" xml:space="preserve">
<style type="text/css">
	.st0{fill:url(#SVGID_1_);stroke:#1D71B8;stroke-miterlimit:10;}
	.st1{fill:url(#SVGID_2_);stroke:#1D71B8;stroke-miterlimit:10;}
</style>
<radialGradient id="SVGID_1_" cx="65.6738" cy="182.4312" r="24.3824" fx="79.3978" fy="202.5844" gradientUnits="userSpaceOnUse">
	<stop  offset="0" style="stop-color:#1D71B8"/>
	<stop  offset="1" style="stop-color:#27348B"/>
</radialGradient>
<path class="st0" d="M65.7,164c-7.8,0-17,4.5-17,17c0,6.1,4.3,13,8.5,19.6c3.9,6.1,7.5,11.8,7.5,16.4v6c0,0.6,0.4,1,1,1
	c0.6,0,1-0.4,1-1v-6c0-4.6,3.6-10.4,7.5-16.4c4.2-6.6,8.5-13.4,8.5-19.6C82.7,168.5,73.5,164,65.7,164z M65.7,192
	c-5.5,0-10-4.5-10-10s4.5-10,10-10c5.5,0,10,4.5,10,10S71.2,192,65.7,192z"/>
<radialGradient id="SVGID_2_" cx="17.5" cy="18.9058" r="24.3824" fx="31.224" fy="39.059" gradientUnits="userSpaceOnUse">
	<stop  offset="0" style="stop-color:#3AAA35"/>
	<stop  offset="1" style="stop-color:#006633"/>
</radialGradient>
<path class="st1" d="M17.5,0.5c-7.8,0-17,4.5-17,17c0,6.1,4.3,13,8.5,19.6c3.9,6.1,7.5,11.8,7.5,16.4v6c0,0.6,0.4,1,1,1s1-0.4,1-1
	v-6c0-4.6,3.6-10.4,7.5-16.4c4.2-6.6,8.5-13.4,8.5-19.6C34.5,5,25.3,0.5,17.5,0.5z M17.5,28.5c-5.5,0-10-4.5-10-10s4.5-10,10-10
	s10,4.5,10,10S23,28.5,17.5,28.5z"/>
</svg>
