<?xml version="1.0" encoding="utf-8"?>
<!-- Generator: Adobe Illustrator 19.2.1, SVG Export Plug-In . SVG Version: 6.00 Build 0)  -->
<svg version="1.1" id="Layer_1" xmlns="http://www.w3.org/2000/svg" xmlns:xlink="http://www.w3.org/1999/xlink" x="0px" y="0px"
	 viewBox="0 0 80 80" style="enable-background:new 0 0 80 80;" xml:space="preserve">
<style type="text/css">
	.st0{fill:#D6EEFB;}
	.st1{fill:#AAC4BF;}
	.st2{fill:#9A9999;}
</style>
<g>
	<circle class="st0" cx="40" cy="40" r="40"/>
	<g>
		<path class="st1" d="M15,20.5v35.9c0,0.5,0.4,0.9,0.9,0.9c13.9,0,23.3,3.5,23.3,6.7V24.8c-3.5-3.2-12.2-5.2-23.3-5.2
			C15.4,19.6,15,20,15,20.5z M20.5,29.4c5.6,0.4,10.7,1.4,14.4,2.7c0.4,0.2,0.7,0.7,0.5,1.1c-0.1,0.3-0.5,0.6-0.8,0.6
			c-0.1,0-0.2,0-0.3-0.1c-3.5-1.3-8.4-2.3-13.9-2.6c-0.5,0-0.8-0.4-0.8-0.9C19.6,29.7,20,29.4,20.5,29.4z M20.5,35.9
			c5.6,0.4,10.7,1.4,14.4,2.8c0.4,0.2,0.7,0.7,0.5,1.1c-0.1,0.3-0.5,0.6-0.8,0.6c-0.1,0-0.2,0-0.3-0.1c-3.5-1.3-8.4-2.3-13.9-2.6
			c-0.5,0-0.8-0.4-0.8-0.9C19.6,36.3,20,35.9,20.5,35.9z M20.5,42.5c5.6,0.4,10.7,1.4,14.4,2.7c0.4,0.2,0.7,0.7,0.5,1.1
			c-0.1,0.3-0.5,0.6-0.8,0.6c-0.1,0-0.2,0-0.3-0.1c-3.5-1.3-8.4-2.3-13.9-2.6c-0.5,0-0.8-0.4-0.8-0.9C19.6,42.8,20,42.4,20.5,42.5z
			 M20.5,49c5.6,0.4,10.7,1.4,14.4,2.8c0.4,0.2,0.7,0.7,0.5,1.1c-0.1,0.3-0.5,0.6-0.8,0.6c-0.1,0-0.2,0-0.3-0.1
			c-3.5-1.3-8.4-2.3-13.9-2.6c-0.5,0-0.8-0.4-0.8-0.9C19.6,49.3,20,48.9,20.5,49z"/>
		<path class="st1" d="M64.1,19.6c-11,0-19.7,2.1-23.3,5.2V64c0-3.3,9.4-6.7,23.3-6.7c0.5,0,0.9-0.4,0.9-0.9V20.5
			C65,20,64.6,19.6,64.1,19.6z M59.6,50.7c-5.5,0.4-10.4,1.3-13.9,2.6c-0.1,0-0.2,0.1-0.3,0.1c-0.3,0-0.7-0.2-0.8-0.6
			c-0.2-0.4,0.1-0.9,0.5-1.1c3.6-1.4,8.8-2.4,14.4-2.8c0.5,0,0.9,0.3,0.9,0.8C60.5,50.3,60.1,50.7,59.6,50.7z M59.6,44.2
			c-5.5,0.4-10.4,1.3-13.9,2.6c-0.1,0-0.2,0.1-0.3,0.1c-0.3,0-0.7-0.2-0.8-0.6c-0.2-0.4,0.1-0.9,0.5-1.1c3.6-1.4,8.8-2.4,14.4-2.7
			c0.5,0,0.9,0.3,0.9,0.8C60.5,43.7,60.1,44.1,59.6,44.2z M59.6,37.7C54.2,38,49.2,39,45.7,40.3c-0.1,0-0.2,0.1-0.3,0.1
			c-0.3,0-0.7-0.2-0.8-0.6c-0.2-0.4,0.1-0.9,0.5-1.1c3.6-1.4,8.8-2.4,14.4-2.8c0.5,0,0.9,0.3,0.9,0.8C60.5,37.2,60.1,37.6,59.6,37.7
			z M59.6,31.1c-5.5,0.4-10.4,1.3-13.9,2.6c-0.1,0-0.2,0.1-0.3,0.1c-0.3,0-0.7-0.2-0.8-0.6c-0.2-0.4,0.1-0.9,0.5-1.1
			c3.6-1.4,8.8-2.4,14.4-2.7c0.5,0,0.9,0.3,0.9,0.8C60.5,30.7,60.1,31.1,59.6,31.1z"/>
	</g>
</g>
</svg>
