<?xml version="1.0" encoding="utf-8"?>
<!-- Generator: Adobe Illustrator 19.2.1, SVG Export Plug-In . SVG Version: 6.00 Build 0)  -->
<svg version="1.1" id="Layer_1" xmlns="http://www.w3.org/2000/svg" xmlns:xlink="http://www.w3.org/1999/xlink" x="0px" y="0px"
	 viewBox="0 0 80 80" style="enable-background:new 0 0 80 80;" xml:space="preserve">
<style type="text/css">
	.st0{fill:#D6EEFB;}
	.st1{fill:#AAC4BF;}
	.st2{fill:#9A9999;}
</style>
<g>
	<circle class="st0" cx="40" cy="40" r="40"/>
	<path class="st1" d="M62.3,49.1c-2.6-2.6-6.3-3.4-9.7-2.2L45.7,40l6.9-6.9c1,0.4,2,0.5,3.1,0.5c2.5,0,4.8-1,6.6-2.7
		c2.7-2.7,3.5-6.5,2-10c-0.1-0.3-0.4-0.5-0.6-0.5c-0.3,0-0.6,0.1-0.8,0.3l-3.8,4.5h-3.8v-4.1l4.3-3.8c0.2-0.2,0.3-0.5,0.3-0.8
		c0-0.3-0.2-0.5-0.5-0.6C58.2,15.3,57,15,55.7,15c-2.5,0-4.8,1-6.6,2.7c-2.6,2.6-3.4,6.3-2.2,9.7L40,34.3l-6.9-6.9
		c1.2-3.4,0.4-7.1-2.2-9.7c-2.7-2.7-6.5-3.5-10-2c-0.3,0.1-0.5,0.4-0.5,0.6c0,0.3,0.1,0.6,0.3,0.8l4.5,3.8v4.1h-4.1l-3.8-4.5
		c-0.2-0.2-0.5-0.3-0.8-0.3c-0.3,0-0.5,0.2-0.6,0.5c-1.5,3.5-0.7,7.4,2,10.1c2.5,2.5,6.3,3.4,9.7,2.2l6.9,6.9l-6.9,6.9
		c-1-0.4-2-0.5-3.1-0.5c-2.5,0-4.8,1-6.6,2.7c-2.7,2.7-3.5,6.7-2,10.2c0.1,0.3,0.4,0.5,0.6,0.5c0.3,0,0.6-0.1,0.8-0.3l3.8-4.3h4.1
		v3.8l-4.5,3.8c-0.2,0.2-0.3,0.5-0.3,0.8c0,0.3,0.2,0.5,0.5,0.6c1.2,0.5,2.4,0.7,3.6,0.7h0c2.4,0,4.8-1,6.5-2.7
		c2.5-2.5,3.3-6.3,2.1-9.7l6.9-6.9l6.9,6.9c-1.2,3.4-0.4,7.1,2.2,9.7c1.8,1.8,4.1,2.7,6.6,2.7c1.2,0,2.5-0.2,3.6-0.7
		c0.3-0.1,0.5-0.4,0.5-0.6c0-0.3-0.1-0.6-0.3-0.8l-4.3-3.8v-3.8h3.8l3.8,4.3c0.2,0.2,0.5,0.3,0.8,0.3c0.3,0,0.5-0.2,0.6-0.5
		C65.7,55.8,65,51.8,62.3,49.1z"/>
</g>
</svg>
