<?xml version="1.0" encoding="utf-8"?>
<!-- Generator: Adobe Illustrator 19.2.1, SVG Export Plug-In . SVG Version: 6.00 Build 0)  -->
<svg version="1.1" id="Layer_1" xmlns="http://www.w3.org/2000/svg" xmlns:xlink="http://www.w3.org/1999/xlink" x="0px" y="0px"
	 viewBox="0 0 80 80" style="enable-background:new 0 0 80 80;" xml:space="preserve">
<style type="text/css">
	.st0{fill:#D6EEFB;}
	.st1{fill:#AAC4BF;}
	.st2{fill:#9A9999;}
</style>
<g>
	<circle class="st0" cx="40" cy="40" r="40"/>
	<g>
		<path class="st1" d="M63.1,19.3H17.8c-0.4,0-0.8,0.3-0.8,0.8v29.7c0,0.4,0.3,0.8,0.8,0.8h21.9v5.1l-9.1,9.1
			c-0.3,0.3-0.3,0.8,0,1.1c0.3,0.3,0.8,0.3,1.1,0l8.8-8.8l8.8,8.8c0.2,0.2,0.4,0.2,0.6,0.2s0.4-0.1,0.6-0.2c0.3-0.3,0.3-0.8,0-1.1
			l-9.1-9.1v-5.1h21.9c0.4,0,0.8-0.3,0.8-0.8V20.1C63.9,19.6,63.5,19.3,63.1,19.3z M59.2,45.1c0,0.4-0.3,0.8-0.8,0.8H22.5
			c-0.4,0-0.8-0.3-0.8-0.8v-9.4V24.7c0-0.4,0.3-0.8,0.8-0.8h35.9c0.4,0,0.8,0.3,0.8,0.8V45.1z"/>
		<path class="st1" d="M22.5,36.5h7c0.2,0,0.4-0.1,0.6-0.2l3.5-3.7l3,7.3c0.1,0.2,0.3,0.4,0.6,0.5c0.1,0,0.1,0,0.2,0
			c0.2,0,0.4-0.1,0.6-0.2l4.9-4.9l3.4,3.4c0.2,0.2,0.4,0.2,0.6,0.2c0.2,0,0.4-0.1,0.6-0.3l7-8.6c0.3-0.3,0.2-0.8-0.1-1.1
			c-0.3-0.3-0.8-0.2-1.1,0.1l-6.5,7.9l-3.3-3.3c-0.3-0.3-0.8-0.3-1.1,0l-4.6,4.6l-3-7.4c-0.1-0.2-0.3-0.4-0.6-0.5
			c-0.3,0-0.5,0-0.7,0.2l-4.1,4.3h-6.7c-0.4,0-0.8,0.3-0.8,0.8S22,36.5,22.5,36.5z"/>
	</g>
</g>
</svg>
