<?xml version="1.0" encoding="utf-8"?>
<!-- Generator: Adobe Illustrator 19.2.1, SVG Export Plug-In . SVG Version: 6.00 Build 0)  -->
<svg version="1.1" id="Layer_1" xmlns="http://www.w3.org/2000/svg" xmlns:xlink="http://www.w3.org/1999/xlink" x="0px" y="0px"
	 viewBox="0 0 80 80" style="enable-background:new 0 0 80 80;" xml:space="preserve">
<style type="text/css">
	.st0{fill:#D6EEFB;}
	.st1{fill:#AAC4BF;}
	.st2{fill:#9A9999;}
</style>
<g>
	<circle class="st0" cx="40" cy="40" r="40"/>
	<g>
		<path class="st1" d="M17.8,45.3h44.4c0.5,0,0.9-0.4,0.9-0.9V21.3c0-0.5-0.4-0.9-0.9-0.9H45.3v-0.9c0-0.5-0.4-0.9-0.9-0.9H40v-4.4
			c0-0.5-0.4-0.9-0.9-0.9s-0.9,0.4-0.9,0.9v4.4h-4.4c-0.5,0-0.9,0.4-0.9,0.9v0.9H17.8c-0.5,0-0.9,0.4-0.9,0.9v23.1
			C16.9,44.9,17.3,45.3,17.8,45.3z M34.7,20.4h8.9v1.8h-8.9V20.4z"/>
		<path class="st1" d="M63.1,47.1H16.9c-1.7,0-2.7,0.9-2.7,2.7c0,1.7,0.9,2.7,2.7,2.7H27l-6.6,12.9c-0.2,0.4,0,1,0.4,1.2
			c0.1,0.1,0.3,0.1,0.4,0.1c0.3,0,0.6-0.2,0.8-0.5l7-13.7h9.2v13.3c0,0.5,0.4,0.9,0.9,0.9s0.9-0.4,0.9-0.9V52.4h9.2l7,13.7
			c0.2,0.3,0.5,0.5,0.8,0.5c0.1,0,0.3,0,0.4-0.1c0.4-0.2,0.6-0.8,0.4-1.2l-6.6-12.9h11.9c1.7,0,2.7-0.9,2.7-2.7
			C65.8,48.1,64.8,47.1,63.1,47.1z"/>
	</g>
</g>
</svg>
