<?xml version="1.0" encoding="utf-8"?>
<!-- Generator: Adobe Illustrator 20.0.0, SVG Export Plug-In . SVG Version: 6.00 Build 0)  -->
<svg version="1.1" id="Layer_1" xmlns="http://www.w3.org/2000/svg" xmlns:xlink="http://www.w3.org/1999/xlink" x="0px" y="0px"
	 viewBox="0 0 800.8 179.9" style="enable-background:new 0 0 800.8 179.9;" xml:space="preserve">
<style type="text/css">
	.st0{fill:#FFFFFF;}
</style>
<g>
	<path class="st0" d="M0,80.1V1.3h10.4v69.4h38.8v9.3H0z"/>
	<path class="st0" d="M61.6,80.1V1.3h27.1c6.1,0,10.8,0.4,14,1.1c4.5,1,8.4,2.9,11.5,5.6c4.2,3.5,7.3,8,9.3,13.5
		c2.1,5.5,3.1,11.7,3.1,18.7c0,6-0.7,11.3-2.1,15.9s-3.2,8.4-5.4,11.5c-2.2,3-4.6,5.4-7.2,7.1c-2.6,1.7-5.7,3.1-9.4,3.9
		c-3.7,0.9-7.9,1.3-12.6,1.3H61.6z M72,70.8h16.8c5.2,0,9.3-0.5,12.2-1.5s5.3-2.3,7.1-4.1c2.5-2.5,4.4-5.8,5.8-10
		c1.4-4.2,2.1-9.2,2.1-15.2c0-8.2-1.4-14.6-4.1-19c-2.7-4.4-6-7.4-9.9-8.9c-2.8-1.1-7.3-1.6-13.5-1.6H72V70.8z"/>
	<path class="st0" d="M197.2,52.5l10.4,2.6c-2.2,8.6-6.1,15.1-11.8,19.6c-5.7,4.5-12.6,6.7-20.8,6.7c-8.5,0-15.4-1.7-20.7-5.2
		c-5.3-3.5-9.4-8.5-12.1-15c-2.8-6.6-4.2-13.6-4.2-21.1c0-8.2,1.6-15.4,4.7-21.5c3.1-6.1,7.6-10.7,13.4-13.9
		c5.8-3.2,12.1-4.8,19.1-4.8c7.9,0,14.5,2,19.9,6c5.4,4,9.1,9.7,11.2,16.9L196,25.4c-1.8-5.7-4.5-9.9-7.9-12.5
		c-3.5-2.6-7.8-3.9-13.1-3.9c-6.1,0-11.1,1.5-15.2,4.4c-4.1,2.9-6.9,6.8-8.6,11.7c-1.6,4.9-2.5,9.9-2.5,15.1c0,6.7,1,12.5,2.9,17.5
		c2,5,5,8.7,9.1,11.2c4.1,2.5,8.6,3.7,13.4,3.7c5.8,0,10.8-1.7,14.8-5C193.1,64.1,195.8,59.1,197.2,52.5z"/>
	<path class="st0" d="M250.9,80.1V1.3h10.7L303,63.2V1.3h10v78.7h-10.7l-41.4-61.9v61.9H250.9z"/>
	<path class="st0" d="M368.3,61.7l10,1.2c-1.6,5.8-4.5,10.4-8.8,13.6c-4.3,3.2-9.7,4.8-16.3,4.8c-8.3,0-15-2.6-19.8-7.7
		c-4.9-5.1-7.3-12.3-7.3-21.6c0-9.6,2.5-17,7.4-22.3c4.9-5.3,11.4-7.9,19.2-7.9c7.6,0,13.9,2.6,18.7,7.8c4.8,5.2,7.3,12.5,7.3,21.9
		c0,0.6,0,1.4-0.1,2.6H336c0.4,6.3,2.1,11.1,5.3,14.4c3.2,3.3,7.2,5,11.9,5c3.5,0,6.6-0.9,9.1-2.8C364.8,68.8,366.8,65.8,368.3,61.7
		z M336.6,46.1h31.9c-0.4-4.8-1.6-8.4-3.7-10.8c-3.1-3.7-7.1-5.6-12-5.6c-4.4,0-8.2,1.5-11.2,4.5C338.5,37.1,336.9,41.1,336.6,46.1z
		"/>
	<path class="st0" d="M388.7,84.8l9.4,1.4c0.4,2.9,1.5,5,3.3,6.3c2.4,1.8,5.7,2.7,9.8,2.7c4.5,0,7.9-0.9,10.4-2.7
		c2.4-1.8,4.1-4.3,4.9-7.5c0.5-2,0.7-6.1,0.7-12.4c-4.2,5-9.5,7.5-15.8,7.5c-7.8,0-13.9-2.8-18.2-8.5c-4.3-5.7-6.4-12.4-6.4-20.4
		c0-5.4,1-10.5,3-15.1c2-4.6,4.8-8.2,8.6-10.7c3.7-2.5,8.1-3.8,13.2-3.8c6.7,0,12.3,2.7,16.7,8.2V23h8.9v49.3
		c0,8.9-0.9,15.2-2.7,18.9c-1.8,3.7-4.7,6.6-8.6,8.8c-3.9,2.1-8.7,3.2-14.5,3.2c-6.8,0-12.3-1.5-16.5-4.6S388.5,91,388.7,84.8z
		 M396.7,50.5c0,7.5,1.5,12.9,4.5,16.4c3,3.4,6.7,5.2,11.2,5.2c4.4,0,8.2-1.7,11.2-5.1c3-3.4,4.5-8.8,4.5-16.1
		c0-7-1.5-12.2-4.6-15.8c-3.1-3.5-6.8-5.3-11.2-5.3c-4.3,0-7.9,1.7-11,5.2S396.7,43.7,396.7,50.5z"/>
	<path class="st0" d="M448,51.6c0-10.6,2.9-18.4,8.8-23.5c4.9-4.2,10.9-6.3,17.9-6.3c7.8,0,14.3,2.6,19.2,7.7
		c5,5.1,7.5,12.2,7.5,21.3c0,7.3-1.1,13.1-3.3,17.3c-2.2,4.2-5.4,7.5-9.6,9.8c-4.2,2.3-8.8,3.5-13.8,3.5c-8,0-14.4-2.6-19.4-7.7
		C450.5,68.6,448,61.2,448,51.6z M457.9,51.6c0,7.3,1.6,12.8,4.8,16.4c3.2,3.6,7.2,5.5,12,5.5c4.8,0,8.8-1.8,12-5.5
		c3.2-3.7,4.8-9.2,4.8-16.7c0-7.1-1.6-12.4-4.8-16c-3.2-3.6-7.2-5.5-12-5.5c-4.8,0-8.8,1.8-12,5.4C459.5,38.8,457.9,44.3,457.9,51.6
		z"/>
	<path class="st0" d="M533.9,71.4l1.4,8.5c-2.7,0.6-5.2,0.9-7.3,0.9c-3.5,0-6.2-0.6-8.2-1.7s-3.3-2.6-4.1-4.4
		c-0.8-1.8-1.2-5.6-1.2-11.4V30.6h-7.1V23h7.1V8.9l9.6-5.8V23h9.7v7.5h-9.7v33.4c0,2.8,0.2,4.5,0.5,5.3c0.3,0.8,0.9,1.4,1.7,1.9
		c0.8,0.5,1.9,0.7,3.3,0.7C530.7,71.8,532.1,71.7,533.9,71.4z"/>
	<path class="st0" d="M543.4,12.5V1.3h9.7v11.1H543.4z M543.4,80.1V23h9.7v57H543.4z"/>
	<path class="st0" d="M605,73c-3.6,3-7,5.2-10.3,6.4c-3.3,1.3-6.9,1.9-10.7,1.9c-6.3,0-11.1-1.5-14.4-4.6c-3.4-3.1-5-7-5-11.7
		c0-2.8,0.6-5.3,1.9-7.7c1.3-2.3,2.9-4.2,5-5.6c2.1-1.4,4.4-2.5,7-3.2c1.9-0.5,4.8-1,8.6-1.5c7.8-0.9,13.6-2,17.2-3.3
		c0-1.3,0.1-2.2,0.1-2.5c0-3.9-0.9-6.7-2.7-8.3c-2.5-2.2-6.1-3.3-11-3.3c-4.5,0-7.9,0.8-10.1,2.4c-2.2,1.6-3.8,4.4-4.8,8.5l-9.5-1.3
		c0.9-4,2.3-7.3,4.2-9.8c2-2.5,4.8-4.4,8.5-5.7c3.7-1.3,8-2,12.9-2c4.9,0,8.8,0.6,11.9,1.7c3,1.1,5.3,2.6,6.7,4.3
		c1.4,1.7,2.4,3.9,3,6.6c0.3,1.6,0.5,4.6,0.5,8.9v12.9c0,9,0.2,14.7,0.6,17.1c0.4,2.4,1.2,4.7,2.4,6.8h-10.1
		C605.9,78.1,605.3,75.7,605,73z M604.2,51.5c-3.5,1.4-8.8,2.7-15.8,3.7c-4,0.6-6.8,1.2-8.4,1.9c-1.6,0.7-2.9,1.8-3.8,3.1
		c-0.9,1.4-1.3,2.9-1.3,4.6c0,2.6,1,4.7,2.9,6.4c2,1.7,4.8,2.6,8.6,2.6c3.7,0,7-0.8,9.9-2.4c2.9-1.6,5-3.9,6.4-6.7
		c1-2.2,1.6-5.4,1.6-9.7V51.5z"/>
	<path class="st0" d="M650.1,71.4l1.4,8.5c-2.7,0.6-5.2,0.9-7.3,0.9c-3.5,0-6.2-0.6-8.2-1.7s-3.3-2.6-4.1-4.4
		c-0.8-1.8-1.2-5.6-1.2-11.4V30.6h-7.1V23h7.1V8.9l9.6-5.8V23h9.7v7.5h-9.7v33.4c0,2.8,0.2,4.5,0.5,5.3c0.3,0.8,0.9,1.4,1.7,1.9
		c0.8,0.5,1.9,0.7,3.3,0.7C646.9,71.8,648.3,71.7,650.1,71.4z"/>
	<path class="st0" d="M655.9,51.6c0-10.6,2.9-18.4,8.8-23.5c4.9-4.2,10.9-6.3,17.9-6.3c7.8,0,14.3,2.6,19.2,7.7
		c5,5.1,7.5,12.2,7.5,21.3c0,7.3-1.1,13.1-3.3,17.3c-2.2,4.2-5.4,7.5-9.6,9.8c-4.2,2.3-8.8,3.5-13.8,3.5c-8,0-14.4-2.6-19.4-7.7
		C658.4,68.6,655.9,61.2,655.9,51.6z M665.9,51.6c0,7.3,1.6,12.8,4.8,16.4c3.2,3.6,7.2,5.5,12,5.5c4.8,0,8.8-1.8,12-5.5
		c3.2-3.7,4.8-9.2,4.8-16.7c0-7.1-1.6-12.4-4.8-16c-3.2-3.6-7.2-5.5-12-5.5c-4.8,0-8.8,1.8-12,5.4C667.4,38.8,665.9,44.3,665.9,51.6
		z"/>
	<path class="st0" d="M720.6,80.1V23h8.7v8.6c2.2-4,4.3-6.7,6.1-8c1.9-1.3,3.9-1.9,6.2-1.9c3.3,0,6.6,1,9.9,3.1l-3.3,9
		c-2.4-1.4-4.7-2.1-7.1-2.1c-2.1,0-4,0.6-5.7,1.9c-1.7,1.3-2.9,3-3.6,5.3c-1.1,3.4-1.6,7.2-1.6,11.3v29.9H720.6z"/>
	<path class="st0" d="M753.5,63.1l9.6-1.5c0.5,3.8,2,6.8,4.5,8.8c2.5,2,5.9,3.1,10.3,3.1c4.4,0,7.7-0.9,9.9-2.7
		c2.1-1.8,3.2-3.9,3.2-6.4c0-2.2-0.9-3.9-2.8-5.2c-1.3-0.9-4.6-2-9.9-3.3c-7.1-1.8-12-3.3-14.7-4.6c-2.7-1.3-4.8-3.1-6.2-5.4
		c-1.4-2.3-2.1-4.9-2.1-7.7c0-2.5,0.6-4.9,1.7-7.1c1.2-2.2,2.7-4,4.8-5.4c1.5-1.1,3.6-2,6.2-2.8c2.6-0.8,5.4-1.2,8.4-1.2
		c4.5,0,8.4,0.6,11.8,1.9c3.4,1.3,5.9,3,7.5,5.2s2.7,5.1,3.3,8.8l-9.5,1.3c-0.4-2.9-1.7-5.2-3.7-6.9c-2.1-1.6-5-2.5-8.7-2.5
		c-4.4,0-7.6,0.7-9.5,2.2c-1.9,1.5-2.8,3.2-2.8,5.2c0,1.3,0.4,2.4,1.2,3.4c0.8,1,2,1.9,3.7,2.6c1,0.4,3.8,1.2,8.5,2.5
		c6.8,1.8,11.6,3.3,14.3,4.5c2.7,1.2,4.8,2.9,6.4,5.1c1.5,2.2,2.3,5,2.3,8.3c0,3.2-0.9,6.3-2.8,9.1c-1.9,2.8-4.6,5-8.1,6.6
		s-7.6,2.3-12,2.3c-7.4,0-13.1-1.5-16.9-4.6C757,73.7,754.5,69.1,753.5,63.1z"/>
</g>
<g>
	<path class="st0" d="M39.9,123.9c0,0.5,0,0.9-0.1,1.3c-0.1,0.4-0.1,0.7-0.2,0.9c-0.1,0.2-0.2,0.4-0.4,0.5c-0.2,0.1-0.3,0.2-0.5,0.2
		c-0.3,0-0.8-0.2-1.5-0.7c-0.7-0.5-1.7-1-2.8-1.6c-1.2-0.6-2.6-1.1-4.3-1.6c-1.7-0.5-3.6-0.7-5.9-0.7c-2.7,0-5.1,0.5-7.3,1.5
		c-2.1,1-4,2.3-5.4,4.1c-1.5,1.7-2.6,3.8-3.4,6.2c-0.8,2.4-1.2,5-1.2,7.8c0,3.1,0.4,5.9,1.3,8.3c0.9,2.4,2.1,4.5,3.6,6.1
		c1.5,1.7,3.4,2.9,5.5,3.8c2.1,0.9,4.5,1.3,7,1.3c1.5,0,3-0.2,4.6-0.5c1.5-0.4,3-0.9,4.3-1.6v-14.2H21.9c-0.4,0-0.8-0.2-1-0.6
		c-0.2-0.4-0.3-1.1-0.3-2c0-0.5,0-0.9,0.1-1.2c0.1-0.3,0.1-0.6,0.2-0.8c0.1-0.2,0.2-0.4,0.4-0.5c0.2-0.1,0.3-0.2,0.6-0.2h15.5
		c0.3,0,0.6,0.1,0.8,0.2c0.3,0.1,0.5,0.3,0.8,0.5c0.2,0.2,0.4,0.5,0.5,0.8c0.1,0.4,0.2,0.8,0.2,1.2v18.6c0,0.7-0.1,1.2-0.3,1.7
		s-0.7,0.9-1.4,1.3c-0.7,0.4-1.7,0.8-2.8,1.2c-1.2,0.4-2.4,0.8-3.6,1.1c-1.2,0.3-2.5,0.5-3.7,0.7c-1.3,0.2-2.5,0.2-3.7,0.2
		c-3.8,0-7.2-0.6-10.1-1.8c-3-1.2-5.5-2.8-7.5-5s-3.6-4.8-4.7-7.8c-1.1-3-1.6-6.4-1.6-10.1c0-3.9,0.6-7.4,1.8-10.5
		c1.2-3.1,2.8-5.8,5-8.1c2.1-2.2,4.7-3.9,7.7-5.2s6.3-1.8,9.9-1.8c1.9,0,3.6,0.2,5.3,0.5c1.6,0.3,3.1,0.7,4.4,1.2
		c1.3,0.4,2.3,0.9,3.2,1.4c0.9,0.5,1.5,0.9,1.8,1.3c0.3,0.3,0.6,0.7,0.7,1.1C39.8,122.5,39.9,123.1,39.9,123.9z"/>
	<path class="st0" d="M55.3,165.2c0,0.2-0.1,0.4-0.2,0.5c-0.1,0.1-0.3,0.3-0.5,0.4c-0.2,0.1-0.5,0.2-0.9,0.2c-0.4,0-0.9,0.1-1.5,0.1
		c-0.6,0-1.1,0-1.5-0.1c-0.4-0.1-0.7-0.1-1-0.2c-0.2-0.1-0.4-0.2-0.5-0.4s-0.1-0.3-0.1-0.5v-50.5c0-0.2,0-0.4,0.1-0.5
		c0.1-0.2,0.3-0.3,0.5-0.4c0.2-0.1,0.6-0.2,1-0.2c0.4-0.1,0.9-0.1,1.5-0.1c0.6,0,1.1,0,1.5,0.1c0.4,0.1,0.7,0.1,0.9,0.2
		c0.2,0.1,0.4,0.2,0.5,0.4c0.1,0.2,0.2,0.3,0.2,0.5V165.2z"/>
	<path class="st0" d="M96.3,147.8c0,2.8-0.4,5.3-1.1,7.7c-0.7,2.3-1.8,4.3-3.3,6c-1.4,1.7-3.3,3-5.4,3.9c-2.2,0.9-4.7,1.4-7.6,1.4
		c-2.8,0-5.2-0.4-7.3-1.2c-2.1-0.8-3.8-2-5.2-3.6c-1.4-1.6-2.4-3.5-3.1-5.8s-1-4.8-1-7.7c0-2.8,0.4-5.3,1.1-7.7s1.8-4.3,3.3-6
		c1.4-1.7,3.3-3,5.4-3.9c2.2-0.9,4.7-1.4,7.6-1.4c2.8,0,5.2,0.4,7.3,1.2c2.1,0.8,3.8,2,5.2,3.6c1.4,1.6,2.4,3.5,3.1,5.8
		S96.3,145,96.3,147.8z M89.9,148.2c0-1.8-0.2-3.6-0.5-5.2c-0.3-1.6-0.9-3.1-1.7-4.3c-0.8-1.2-1.9-2.2-3.2-2.9c-1.3-0.7-3-1.1-5-1.1
		c-1.9,0-3.5,0.3-4.8,1c-1.3,0.7-2.4,1.6-3.3,2.8c-0.9,1.2-1.5,2.6-1.9,4.3c-0.4,1.6-0.6,3.4-0.6,5.4c0,1.9,0.2,3.6,0.5,5.3
		c0.3,1.6,0.9,3.1,1.7,4.3c0.8,1.2,1.9,2.2,3.2,2.9c1.3,0.7,3,1.1,5,1.1c1.8,0,3.4-0.3,4.8-1s2.5-1.6,3.3-2.8
		c0.9-1.2,1.5-2.6,1.9-4.2C89.6,152,89.9,150.2,89.9,148.2z"/>
	<path class="st0" d="M134.6,147.7c0,2.9-0.3,5.6-1,8c-0.6,2.4-1.6,4.4-2.8,6c-1.2,1.7-2.8,2.9-4.6,3.8s-3.9,1.3-6.2,1.3
		c-1.1,0-2.1-0.1-3-0.3c-0.9-0.2-1.8-0.6-2.7-1c-0.9-0.5-1.8-1.1-2.6-1.8c-0.9-0.7-1.8-1.6-2.8-2.6v4.2c0,0.2-0.1,0.4-0.2,0.5
		c-0.1,0.2-0.3,0.3-0.5,0.4c-0.2,0.1-0.5,0.2-0.9,0.2c-0.3,0-0.8,0.1-1.3,0.1c-0.5,0-0.9,0-1.3-0.1c-0.4-0.1-0.6-0.1-0.9-0.2
		c-0.2-0.1-0.4-0.2-0.5-0.4s-0.1-0.3-0.1-0.5v-50.5c0-0.2,0-0.4,0.1-0.5c0.1-0.2,0.3-0.3,0.5-0.4c0.2-0.1,0.6-0.2,1-0.2
		c0.4-0.1,0.9-0.1,1.5-0.1c0.6,0,1.1,0,1.5,0.1c0.4,0.1,0.7,0.1,0.9,0.2c0.2,0.1,0.4,0.2,0.5,0.4c0.1,0.2,0.2,0.3,0.2,0.5v20.4
		c1-1,2-1.9,2.9-2.6c0.9-0.7,1.9-1.3,2.8-1.7c0.9-0.4,1.8-0.8,2.7-1c0.9-0.2,1.9-0.3,2.9-0.3c2.5,0,4.6,0.5,6.3,1.5
		c1.8,1,3.2,2.3,4.3,3.9c1.1,1.7,1.9,3.6,2.4,5.8C134.4,142.9,134.6,145.3,134.6,147.7z M128.2,148.4c0-1.7-0.1-3.4-0.4-5.1
		c-0.3-1.6-0.7-3.1-1.4-4.3c-0.7-1.3-1.5-2.3-2.6-3c-1.1-0.8-2.4-1.2-4.1-1.2c-0.8,0-1.6,0.1-2.4,0.3c-0.8,0.2-1.6,0.6-2.4,1.1
		c-0.8,0.5-1.7,1.2-2.5,2c-0.9,0.8-1.8,1.9-2.8,3.1v13.6c1.7,2.1,3.4,3.7,4.9,4.8c1.6,1.1,3.2,1.6,4.9,1.6c1.6,0,2.9-0.4,4-1.1
		c1.1-0.8,2-1.8,2.7-3c0.7-1.2,1.2-2.6,1.5-4.2C128,151.6,128.2,150,128.2,148.4z"/>
	<path class="st0" d="M167.5,165.2c0,0.3-0.1,0.5-0.3,0.7c-0.2,0.2-0.5,0.3-0.8,0.3c-0.4,0.1-0.9,0.1-1.5,0.1c-0.7,0-1.2,0-1.6-0.1
		c-0.4-0.1-0.7-0.2-0.9-0.3c-0.2-0.2-0.3-0.4-0.3-0.7v-3.4c-1.5,1.6-3.1,2.8-5,3.7c-1.8,0.9-3.8,1.3-5.8,1.3c-1.8,0-3.4-0.2-4.9-0.7
		c-1.4-0.5-2.7-1.1-3.7-2s-1.8-2-2.4-3.2c-0.6-1.3-0.9-2.7-0.9-4.4c0-1.9,0.4-3.6,1.2-5c0.8-1.4,1.9-2.6,3.4-3.5
		c1.5-0.9,3.3-1.6,5.4-2.1c2.1-0.5,4.5-0.7,7.1-0.7h4.7v-2.6c0-1.3-0.1-2.5-0.4-3.5c-0.3-1-0.7-1.8-1.3-2.5
		c-0.6-0.7-1.4-1.2-2.4-1.5c-1-0.3-2.2-0.5-3.6-0.5c-1.5,0-2.9,0.2-4.1,0.5c-1.2,0.4-2.3,0.8-3.2,1.2c-0.9,0.4-1.7,0.8-2.3,1.2
		c-0.6,0.4-1.1,0.5-1.4,0.5c-0.2,0-0.4,0-0.5-0.2c-0.2-0.1-0.3-0.3-0.4-0.5c-0.1-0.2-0.2-0.5-0.2-0.8c-0.1-0.3-0.1-0.7-0.1-1
		c0-0.6,0-1.1,0.1-1.5c0.1-0.4,0.3-0.7,0.6-1c0.3-0.3,0.9-0.7,1.8-1.2c0.8-0.4,1.8-0.8,2.9-1.2c1.1-0.4,2.3-0.7,3.6-0.9
		c1.3-0.2,2.6-0.4,3.9-0.4c2.4,0,4.5,0.3,6.2,0.8c1.7,0.6,3.1,1.4,4.2,2.4c1.1,1.1,1.8,2.4,2.3,4c0.5,1.6,0.7,3.4,0.7,5.6V165.2z
		 M161.3,149.7h-5.3c-1.7,0-3.2,0.1-4.5,0.4c-1.3,0.3-2.3,0.7-3.1,1.3c-0.8,0.6-1.4,1.2-1.8,2c-0.4,0.8-0.6,1.7-0.6,2.7
		c0,1.8,0.6,3.2,1.7,4.2s2.7,1.6,4.7,1.6c1.6,0,3.2-0.4,4.6-1.2c1.4-0.8,2.9-2.1,4.4-3.8V149.7z"/>
	<path class="st0" d="M183,165.2c0,0.2-0.1,0.4-0.2,0.5c-0.1,0.1-0.3,0.3-0.5,0.4c-0.2,0.1-0.5,0.2-0.9,0.2c-0.4,0-0.9,0.1-1.5,0.1
		c-0.6,0-1.1,0-1.5-0.1c-0.4-0.1-0.7-0.1-1-0.2c-0.2-0.1-0.4-0.2-0.5-0.4s-0.1-0.3-0.1-0.5v-50.5c0-0.2,0-0.4,0.1-0.5
		c0.1-0.2,0.3-0.3,0.5-0.4c0.2-0.1,0.6-0.2,1-0.2c0.4-0.1,0.9-0.1,1.5-0.1c0.6,0,1.1,0,1.5,0.1c0.4,0.1,0.7,0.1,0.9,0.2
		c0.2,0.1,0.4,0.2,0.5,0.4c0.1,0.2,0.2,0.3,0.2,0.5V165.2z"/>
	<path class="st0" d="M234.7,152.4c0,2.3-0.4,4.3-1.3,6.1c-0.8,1.8-2,3.3-3.5,4.6c-1.5,1.2-3.3,2.2-5.3,2.8c-2,0.6-4.2,0.9-6.6,0.9
		c-1.6,0-3.2-0.1-4.6-0.4c-1.4-0.3-2.6-0.6-3.7-1s-2-0.8-2.8-1.2c-0.7-0.4-1.3-0.8-1.5-1.1c-0.3-0.3-0.5-0.7-0.6-1.2
		c-0.1-0.5-0.2-1.1-0.2-1.9c0-0.6,0-1,0.1-1.4c0.1-0.4,0.1-0.7,0.2-0.9c0.1-0.2,0.2-0.4,0.4-0.5c0.2-0.1,0.3-0.1,0.5-0.1
		c0.4,0,0.9,0.2,1.5,0.6s1.5,0.9,2.5,1.4c1,0.5,2.2,1,3.6,1.4c1.4,0.4,3.1,0.7,4.9,0.7c1.4,0,2.7-0.2,3.9-0.6c1.2-0.4,2.2-0.9,3-1.6
		c0.8-0.7,1.5-1.5,1.9-2.6s0.7-2.2,0.7-3.4c0-1.4-0.3-2.6-0.9-3.6c-0.6-1-1.5-1.8-2.5-2.6c-1-0.7-2.2-1.4-3.5-2
		c-1.3-0.6-2.7-1.2-4.1-1.9c-1.4-0.6-2.7-1.4-4-2.1c-1.3-0.8-2.5-1.7-3.5-2.8s-1.9-2.3-2.5-3.7c-0.6-1.4-1-3.1-1-5.1
		c0-2,0.4-3.9,1.1-5.5c0.7-1.6,1.8-2.9,3.1-4c1.3-1.1,2.9-1.9,4.7-2.5c1.8-0.6,3.8-0.9,5.9-0.9c1.1,0,2.2,0.1,3.3,0.3
		c1.1,0.2,2.1,0.4,3.1,0.8c1,0.3,1.8,0.7,2.6,1.1c0.8,0.4,1.3,0.7,1.5,0.9c0.2,0.2,0.4,0.4,0.5,0.6c0.1,0.1,0.1,0.3,0.2,0.5
		c0,0.2,0.1,0.5,0.1,0.8c0,0.3,0,0.7,0,1.2c0,0.5,0,0.9-0.1,1.2c0,0.4-0.1,0.6-0.2,0.9c-0.1,0.2-0.2,0.4-0.3,0.5
		c-0.1,0.1-0.3,0.2-0.5,0.2c-0.3,0-0.7-0.2-1.3-0.5c-0.6-0.4-1.3-0.7-2.2-1.2c-0.9-0.4-1.9-0.8-3-1.2c-1.2-0.4-2.5-0.5-3.9-0.5
		c-1.4,0-2.5,0.2-3.6,0.5c-1,0.4-1.8,0.9-2.5,1.5c-0.7,0.6-1.1,1.3-1.5,2.2c-0.3,0.8-0.5,1.7-0.5,2.6c0,1.4,0.3,2.5,0.9,3.5
		c0.6,1,1.5,1.9,2.5,2.6c1,0.8,2.2,1.4,3.6,2.1c1.3,0.6,2.7,1.3,4.1,1.9c1.4,0.6,2.7,1.3,4.1,2.1s2.5,1.7,3.6,2.7
		c1,1,1.9,2.3,2.5,3.7C234.3,148.8,234.7,150.5,234.7,152.4z"/>
	<path class="st0" d="M270.2,165.2c0,0.2,0,0.4-0.1,0.5c-0.1,0.1-0.2,0.3-0.5,0.4c-0.2,0.1-0.5,0.2-0.9,0.2c-0.4,0-0.8,0.1-1.3,0.1
		c-0.6,0-1.1,0-1.4-0.1c-0.4-0.1-0.7-0.1-0.9-0.2c-0.2-0.1-0.4-0.2-0.4-0.4c-0.1-0.1-0.1-0.3-0.1-0.5v-4.5c-1.9,2.1-3.9,3.7-5.7,4.7
		s-3.8,1.5-5.7,1.5c-2.3,0-4.2-0.4-5.7-1.1c-1.5-0.8-2.8-1.8-3.8-3.1c-1-1.3-1.6-2.8-2.1-4.5c-0.4-1.7-0.6-3.8-0.6-6.3v-20.6
		c0-0.2,0-0.4,0.1-0.5c0.1-0.1,0.3-0.3,0.5-0.4s0.6-0.2,1-0.2c0.4,0,0.9-0.1,1.5-0.1c0.6,0,1.1,0,1.5,0.1c0.4,0,0.7,0.1,1,0.2
		c0.2,0.1,0.4,0.2,0.5,0.4c0.1,0.1,0.2,0.3,0.2,0.5V151c0,2,0.1,3.6,0.4,4.8c0.3,1.2,0.7,2.2,1.3,3.1c0.6,0.8,1.3,1.5,2.2,2
		c0.9,0.5,2,0.7,3.2,0.7c1.6,0,3.1-0.6,4.7-1.7c1.5-1.1,3.2-2.7,4.9-4.9v-23.8c0-0.2,0-0.4,0.1-0.5c0.1-0.1,0.3-0.3,0.5-0.4
		c0.3-0.1,0.6-0.2,1-0.2c0.4,0,0.9-0.1,1.5-0.1c0.6,0,1.1,0,1.5,0.1c0.4,0,0.7,0.1,0.9,0.2c0.2,0.1,0.4,0.2,0.5,0.4
		c0.1,0.1,0.2,0.3,0.2,0.5V165.2z"/>
	<path class="st0" d="M310.9,147.7c0,3-0.3,5.6-1,8c-0.6,2.4-1.6,4.4-2.8,6c-1.2,1.7-2.8,2.9-4.6,3.8c-1.8,0.9-3.9,1.3-6.3,1.3
		c-1,0-1.9-0.1-2.8-0.3c-0.9-0.2-1.7-0.5-2.5-0.9c-0.8-0.4-1.6-1-2.4-1.6c-0.8-0.7-1.7-1.4-2.6-2.3v17c0,0.2-0.1,0.4-0.2,0.5
		c-0.1,0.2-0.3,0.3-0.5,0.4c-0.2,0.1-0.5,0.2-0.9,0.2c-0.4,0-0.9,0.1-1.5,0.1c-0.6,0-1.1,0-1.5-0.1c-0.4-0.1-0.7-0.1-1-0.2
		c-0.2-0.1-0.4-0.2-0.5-0.4c-0.1-0.2-0.1-0.3-0.1-0.5v-47.5c0-0.2,0-0.4,0.1-0.5c0.1-0.1,0.2-0.3,0.5-0.4c0.2-0.1,0.5-0.2,0.9-0.2
		c0.4,0,0.8-0.1,1.3-0.1c0.5,0,1,0,1.3,0.1c0.3,0,0.6,0.1,0.9,0.2c0.2,0.1,0.4,0.2,0.5,0.4c0.1,0.1,0.1,0.3,0.1,0.5v4.6
		c1-1.1,2-2,3-2.8c1-0.8,1.9-1.4,2.9-1.9c1-0.5,2-0.9,3-1.2c1-0.3,2.1-0.4,3.2-0.4c2.5,0,4.6,0.5,6.3,1.4c1.7,1,3.2,2.3,4.3,3.9
		c1.1,1.7,1.9,3.6,2.4,5.8C310.6,142.8,310.9,145.2,310.9,147.7z M304.4,148.4c0-1.7-0.1-3.4-0.4-5c-0.3-1.6-0.7-3.1-1.4-4.3
		c-0.6-1.3-1.5-2.3-2.6-3c-1.1-0.8-2.4-1.1-4.1-1.1c-0.8,0-1.6,0.1-2.4,0.4c-0.8,0.2-1.6,0.6-2.4,1.1c-0.8,0.5-1.7,1.2-2.5,2
		c-0.9,0.8-1.8,1.9-2.8,3.1V155c1.7,2.1,3.4,3.7,4.9,4.8c1.5,1.1,3.2,1.7,4.9,1.7c1.6,0,2.9-0.4,4-1.1s2-1.8,2.7-3
		c0.7-1.3,1.2-2.7,1.5-4.2C304.2,151.5,304.4,150,304.4,148.4z"/>
	<path class="st0" d="M349.4,147.7c0,3-0.3,5.6-1,8c-0.6,2.4-1.6,4.4-2.8,6c-1.2,1.7-2.8,2.9-4.6,3.8c-1.8,0.9-3.9,1.3-6.3,1.3
		c-1,0-1.9-0.1-2.8-0.3c-0.9-0.2-1.7-0.5-2.5-0.9c-0.8-0.4-1.6-1-2.4-1.6c-0.8-0.7-1.7-1.4-2.6-2.3v17c0,0.2-0.1,0.4-0.2,0.5
		c-0.1,0.2-0.3,0.3-0.5,0.4c-0.2,0.1-0.5,0.2-0.9,0.2c-0.4,0-0.9,0.1-1.5,0.1c-0.6,0-1.1,0-1.5-0.1c-0.4-0.1-0.7-0.1-1-0.2
		c-0.2-0.1-0.4-0.2-0.5-0.4c-0.1-0.2-0.1-0.3-0.1-0.5v-47.5c0-0.2,0-0.4,0.1-0.5c0.1-0.1,0.2-0.3,0.5-0.4c0.2-0.1,0.5-0.2,0.9-0.2
		c0.4,0,0.8-0.1,1.3-0.1c0.5,0,1,0,1.3,0.1c0.3,0,0.6,0.1,0.9,0.2c0.2,0.1,0.4,0.2,0.5,0.4c0.1,0.1,0.1,0.3,0.1,0.5v4.6
		c1-1.1,2-2,3-2.8c1-0.8,1.9-1.4,2.9-1.9c1-0.5,2-0.9,3-1.2c1-0.3,2.1-0.4,3.2-0.4c2.5,0,4.6,0.5,6.3,1.4c1.7,1,3.2,2.3,4.3,3.9
		c1.1,1.7,1.9,3.6,2.4,5.8C349.1,142.8,349.4,145.2,349.4,147.7z M342.9,148.4c0-1.7-0.1-3.4-0.4-5c-0.3-1.6-0.7-3.1-1.4-4.3
		c-0.6-1.3-1.5-2.3-2.6-3c-1.1-0.8-2.4-1.1-4.1-1.1c-0.8,0-1.6,0.1-2.4,0.4c-0.8,0.2-1.6,0.6-2.4,1.1c-0.8,0.5-1.7,1.2-2.5,2
		c-0.9,0.8-1.8,1.9-2.8,3.1V155c1.7,2.1,3.4,3.7,4.9,4.8c1.5,1.1,3.2,1.7,4.9,1.7c1.6,0,2.9-0.4,4-1.1s2-1.8,2.7-3
		c0.7-1.3,1.2-2.7,1.5-4.2C342.7,151.5,342.9,150,342.9,148.4z"/>
	<path class="st0" d="M388.2,147.8c0,2.8-0.4,5.3-1.1,7.7c-0.7,2.3-1.8,4.3-3.3,6c-1.4,1.7-3.3,3-5.4,3.9c-2.2,0.9-4.7,1.4-7.6,1.4
		c-2.8,0-5.2-0.4-7.3-1.2c-2.1-0.8-3.8-2-5.2-3.6c-1.4-1.6-2.4-3.5-3.1-5.8s-1-4.8-1-7.7c0-2.8,0.4-5.3,1.1-7.7s1.8-4.3,3.3-6
		c1.4-1.7,3.3-3,5.4-3.9c2.2-0.9,4.7-1.4,7.6-1.4c2.8,0,5.2,0.4,7.3,1.2c2.1,0.8,3.8,2,5.2,3.6c1.4,1.6,2.4,3.5,3.1,5.8
		S388.2,145,388.2,147.8z M381.7,148.2c0-1.8-0.2-3.6-0.5-5.2c-0.3-1.6-0.9-3.1-1.7-4.3c-0.8-1.2-1.9-2.2-3.2-2.9
		c-1.3-0.7-3-1.1-5-1.1c-1.9,0-3.5,0.3-4.8,1c-1.3,0.7-2.4,1.6-3.3,2.8c-0.9,1.2-1.5,2.6-1.9,4.3c-0.4,1.6-0.6,3.4-0.6,5.4
		c0,1.9,0.2,3.6,0.5,5.3c0.3,1.6,0.9,3.1,1.7,4.3c0.8,1.2,1.9,2.2,3.2,2.9c1.3,0.7,3,1.1,5,1.1c1.8,0,3.4-0.3,4.8-1s2.5-1.6,3.3-2.8
		c0.9-1.2,1.5-2.6,1.9-4.2C381.5,152,381.7,150.2,381.7,148.2z"/>
	<path class="st0" d="M415.1,133.4c0,0.6,0,1,0,1.4c0,0.4-0.1,0.7-0.2,0.9c-0.1,0.2-0.2,0.4-0.3,0.5c-0.1,0.1-0.3,0.2-0.5,0.2
		c-0.2,0-0.4-0.1-0.7-0.2c-0.3-0.1-0.6-0.2-1-0.3c-0.4-0.1-0.8-0.2-1.2-0.3c-0.5-0.1-0.9-0.2-1.5-0.2c-0.6,0-1.2,0.1-1.9,0.4
		c-0.6,0.3-1.2,0.7-1.9,1.2c-0.7,0.6-1.4,1.3-2.1,2.3c-0.7,1-1.5,2.1-2.4,3.5v22.4c0,0.2-0.1,0.4-0.2,0.5c-0.1,0.1-0.3,0.3-0.5,0.4
		c-0.2,0.1-0.5,0.2-0.9,0.2c-0.4,0-0.9,0.1-1.5,0.1c-0.6,0-1.1,0-1.5-0.1c-0.4-0.1-0.7-0.1-1-0.2c-0.2-0.1-0.4-0.2-0.5-0.4
		s-0.1-0.3-0.1-0.5v-34c0-0.2,0-0.4,0.1-0.5c0.1-0.1,0.2-0.3,0.5-0.4c0.2-0.1,0.5-0.2,0.9-0.2c0.4,0,0.8-0.1,1.4-0.1
		c0.6,0,1,0,1.4,0.1c0.4,0,0.6,0.1,0.9,0.2s0.3,0.2,0.4,0.4c0.1,0.1,0.1,0.3,0.1,0.5v5c0.9-1.4,1.8-2.5,2.6-3.3
		c0.8-0.9,1.6-1.5,2.3-2c0.7-0.5,1.5-0.8,2.2-1c0.7-0.2,1.4-0.3,2.2-0.3c0.3,0,0.7,0,1.1,0.1c0.4,0,0.9,0.1,1.3,0.2
		c0.5,0.1,0.9,0.2,1.2,0.3c0.4,0.1,0.6,0.3,0.8,0.4c0.2,0.1,0.3,0.2,0.3,0.4c0,0.1,0.1,0.3,0.1,0.4c0,0.2,0.1,0.4,0.1,0.8
		C415.1,132.4,415.1,132.8,415.1,133.4z"/>
	<path class="st0" d="M437.7,162.7c0,0.7-0.1,1.3-0.2,1.7c-0.1,0.4-0.3,0.7-0.5,0.9c-0.2,0.2-0.5,0.4-0.9,0.6
		c-0.4,0.2-0.9,0.3-1.4,0.4c-0.5,0.1-1.1,0.2-1.6,0.3c-0.6,0.1-1.2,0.1-1.7,0.1c-1.8,0-3.3-0.2-4.5-0.7c-1.3-0.5-2.3-1.2-3.1-2.1
		c-0.8-0.9-1.4-2.1-1.8-3.6c-0.4-1.4-0.5-3.2-0.5-5.1v-19.9h-4.8c-0.4,0-0.7-0.2-0.9-0.6c-0.2-0.4-0.3-1.1-0.3-2
		c0-0.5,0-0.9,0.1-1.2c0.1-0.3,0.1-0.6,0.2-0.8c0.1-0.2,0.2-0.4,0.4-0.5c0.2-0.1,0.3-0.1,0.5-0.1h4.7v-8.1c0-0.2,0-0.3,0.1-0.5
		c0.1-0.2,0.3-0.3,0.5-0.4c0.2-0.1,0.6-0.2,1-0.2c0.4-0.1,0.9-0.1,1.5-0.1c0.6,0,1.1,0,1.5,0.1c0.4,0.1,0.7,0.1,0.9,0.2
		c0.2,0.1,0.4,0.2,0.5,0.4c0.1,0.2,0.2,0.3,0.2,0.5v8.1h8.7c0.2,0,0.4,0,0.5,0.1s0.3,0.2,0.4,0.5c0.1,0.2,0.2,0.5,0.2,0.8
		c0.1,0.3,0.1,0.7,0.1,1.2c0,0.9-0.1,1.6-0.3,2c-0.2,0.4-0.5,0.6-0.9,0.6h-8.7v19c0,2.3,0.3,4.1,1,5.3c0.7,1.2,1.9,1.8,3.7,1.8
		c0.6,0,1.1-0.1,1.5-0.2c0.5-0.1,0.9-0.2,1.2-0.4c0.4-0.1,0.7-0.2,0.9-0.4c0.3-0.1,0.5-0.2,0.7-0.2c0.1,0,0.2,0,0.4,0.1
		c0.1,0.1,0.2,0.2,0.3,0.4c0.1,0.2,0.1,0.4,0.2,0.7C437.7,161.9,437.7,162.2,437.7,162.7z"/>
	<path class="st0" d="M489.9,131.6c0,2.4-0.4,4.6-1.2,6.6c-0.8,2-2,3.6-3.5,5s-3.3,2.5-5.5,3.2c-2.2,0.8-4.8,1.1-7.8,1.1h-5.6v17.6
		c0,0.2-0.1,0.4-0.2,0.5c-0.1,0.2-0.3,0.3-0.5,0.4c-0.2,0.1-0.6,0.2-1,0.2c-0.4,0.1-0.9,0.1-1.6,0.1c-0.6,0-1.2,0-1.6-0.1
		c-0.4-0.1-0.8-0.1-1-0.2c-0.3-0.1-0.4-0.2-0.5-0.4c-0.1-0.2-0.2-0.3-0.2-0.5V120c0-1,0.3-1.7,0.8-2.2c0.5-0.4,1.1-0.6,1.8-0.6h10.5
		c1.1,0,2.1,0,3,0.1c1,0.1,2.1,0.3,3.4,0.6c1.3,0.3,2.7,0.8,4,1.6c1.4,0.8,2.5,1.8,3.5,2.9c1,1.2,1.7,2.5,2.2,4
		C489.6,128,489.9,129.7,489.9,131.6z M483,132.1c0-2-0.4-3.7-1.1-5c-0.7-1.3-1.7-2.3-2.8-3c-1.1-0.7-2.2-1.1-3.4-1.2
		c-1.2-0.2-2.3-0.3-3.4-0.3h-6v19.6h5.9c2,0,3.6-0.3,4.9-0.8c1.3-0.5,2.4-1.2,3.3-2.1c0.9-0.9,1.5-2,2-3.2
		C482.8,134.9,483,133.5,483,132.1z"/>
	<path class="st0" d="M516.8,133.4c0,0.6,0,1,0,1.4s-0.1,0.7-0.2,0.9c-0.1,0.2-0.2,0.4-0.3,0.5c-0.1,0.1-0.3,0.2-0.5,0.2
		c-0.2,0-0.4-0.1-0.7-0.2c-0.3-0.1-0.6-0.2-1-0.3c-0.4-0.1-0.8-0.2-1.2-0.3c-0.5-0.1-0.9-0.2-1.5-0.2c-0.6,0-1.2,0.1-1.9,0.4
		c-0.6,0.3-1.2,0.7-1.9,1.2c-0.7,0.6-1.4,1.3-2.1,2.3c-0.7,1-1.5,2.1-2.4,3.5v22.4c0,0.2-0.1,0.4-0.2,0.5s-0.3,0.3-0.5,0.4
		c-0.2,0.1-0.5,0.2-0.9,0.2c-0.4,0-0.9,0.1-1.5,0.1c-0.6,0-1.1,0-1.5-0.1c-0.4-0.1-0.7-0.1-1-0.2c-0.2-0.1-0.4-0.2-0.5-0.4
		c-0.1-0.1-0.1-0.3-0.1-0.5v-34c0-0.2,0-0.4,0.1-0.5c0.1-0.1,0.2-0.3,0.5-0.4s0.5-0.2,0.9-0.2c0.4,0,0.8-0.1,1.4-0.1
		c0.6,0,1,0,1.4,0.1c0.4,0,0.6,0.1,0.9,0.2c0.2,0.1,0.3,0.2,0.4,0.4c0.1,0.1,0.1,0.3,0.1,0.5v5c0.9-1.4,1.8-2.5,2.6-3.3
		c0.8-0.9,1.6-1.5,2.3-2c0.7-0.5,1.5-0.8,2.2-1s1.4-0.3,2.2-0.3c0.3,0,0.7,0,1.1,0.1c0.4,0,0.9,0.1,1.3,0.2c0.5,0.1,0.9,0.2,1.2,0.3
		c0.4,0.1,0.6,0.3,0.8,0.4s0.3,0.2,0.3,0.4c0,0.1,0.1,0.3,0.1,0.4c0,0.2,0.1,0.4,0.1,0.8C516.8,132.4,516.8,132.8,516.8,133.4z"/>
	<path class="st0" d="M552.1,147.8c0,2.8-0.4,5.3-1.1,7.7c-0.7,2.3-1.8,4.3-3.3,6c-1.4,1.7-3.3,3-5.4,3.9c-2.2,0.9-4.7,1.4-7.6,1.4
		c-2.8,0-5.2-0.4-7.3-1.2c-2.1-0.8-3.8-2-5.2-3.6c-1.4-1.6-2.4-3.5-3.1-5.8s-1-4.8-1-7.7c0-2.8,0.4-5.3,1.1-7.7s1.8-4.3,3.2-6
		c1.4-1.7,3.3-3,5.4-3.9c2.2-0.9,4.7-1.4,7.6-1.4c2.8,0,5.2,0.4,7.3,1.2c2.1,0.8,3.8,2,5.2,3.6s2.4,3.5,3.1,5.8
		C551.8,142.4,552.1,145,552.1,147.8z M545.7,148.2c0-1.8-0.2-3.6-0.5-5.2c-0.3-1.6-0.9-3.1-1.7-4.3c-0.8-1.2-1.9-2.2-3.2-2.9
		c-1.3-0.7-3-1.1-5-1.1c-1.9,0-3.5,0.3-4.8,1c-1.3,0.7-2.4,1.6-3.3,2.8c-0.9,1.2-1.5,2.6-1.9,4.3c-0.4,1.6-0.6,3.4-0.6,5.4
		c0,1.9,0.2,3.6,0.5,5.3c0.3,1.6,0.9,3.1,1.7,4.3c0.8,1.2,1.9,2.2,3.2,2.9s3,1.1,5,1.1c1.8,0,3.4-0.3,4.8-1s2.5-1.6,3.3-2.8
		c0.9-1.2,1.5-2.6,1.9-4.2C545.5,152,545.7,150.2,545.7,148.2z"/>
	<path class="st0" d="M587.6,132.7c0,0.9-0.1,1.5-0.4,1.9c-0.2,0.4-0.5,0.6-0.9,0.6h-4.9c0.9,0.9,1.5,1.9,1.9,3
		c0.4,1.1,0.5,2.2,0.5,3.4c0,2-0.3,3.7-0.9,5.2c-0.6,1.5-1.5,2.8-2.7,3.8c-1.2,1-2.6,1.8-4.2,2.4c-1.6,0.6-3.4,0.8-5.4,0.8
		c-1.4,0-2.7-0.2-4-0.5c-1.2-0.4-2.2-0.8-2.9-1.4c-0.5,0.5-0.8,1-1.1,1.5c-0.3,0.6-0.4,1.2-0.4,2c0,0.9,0.4,1.6,1.2,2.2
		c0.8,0.6,1.9,0.9,3.3,0.9l8.9,0.4c1.7,0.1,3.2,0.3,4.6,0.7s2.6,1,3.7,1.8s1.8,1.7,2.4,2.8c0.6,1.1,0.9,2.4,0.9,3.9
		c0,1.6-0.3,3-1,4.5c-0.7,1.4-1.7,2.7-3,3.7c-1.3,1.1-3.1,1.9-5.2,2.5c-2.1,0.6-4.6,0.9-7.4,0.9c-2.7,0-5.1-0.2-7-0.7
		c-1.9-0.5-3.5-1.1-4.7-1.9s-2.1-1.8-2.7-2.9c-0.6-1.1-0.8-2.3-0.8-3.6c0-0.8,0.1-1.6,0.3-2.4c0.2-0.8,0.5-1.5,0.9-2.2
		s0.9-1.4,1.5-2c0.6-0.6,1.3-1.3,2.1-1.9c-1.2-0.6-2.1-1.4-2.7-2.4c-0.6-1-0.9-2-0.9-3.1c0-1.5,0.3-2.9,0.9-4.1
		c0.6-1.2,1.4-2.3,2.3-3.2c-0.8-0.9-1.4-2-1.9-3.2c-0.5-1.2-0.7-2.6-0.7-4.3c0-1.9,0.3-3.7,1-5.2s1.6-2.8,2.7-3.9
		c1.2-1.1,2.6-1.9,4.2-2.4s3.4-0.9,5.3-0.9c1,0,2,0.1,2.9,0.2s1.7,0.3,2.5,0.5h10.3c0.4,0,0.7,0.2,1,0.6
		C587.5,131.2,587.6,131.9,587.6,132.7z M581,168.6c0-1.5-0.6-2.6-1.8-3.4c-1.2-0.8-2.8-1.2-4.9-1.3l-8.8-0.3
		c-0.8,0.6-1.5,1.2-2,1.8c-0.5,0.6-0.9,1.1-1.2,1.6c-0.3,0.5-0.5,1-0.6,1.5s-0.2,1-0.2,1.5c0,1.6,0.8,2.9,2.5,3.7
		c1.7,0.8,4,1.3,7,1.3c1.9,0,3.5-0.2,4.7-0.5c1.3-0.4,2.3-0.8,3.1-1.5c0.8-0.6,1.3-1.3,1.7-2.1C580.8,170.3,581,169.5,581,168.6z
		 M577.8,141.7c0-2.3-0.6-4.1-1.9-5.4c-1.3-1.3-3.1-1.9-5.4-1.9c-1.2,0-2.3,0.2-3.2,0.6c-0.9,0.4-1.6,1-2.2,1.7
		c-0.6,0.7-1,1.5-1.3,2.4c-0.3,0.9-0.4,1.9-0.4,2.9c0,2.2,0.6,4,1.9,5.3s3.1,1.9,5.3,1.9c1.2,0,2.3-0.2,3.2-0.6s1.7-0.9,2.2-1.6
		c0.6-0.7,1-1.5,1.3-2.4C577.7,143.6,577.8,142.7,577.8,141.7z"/>
	<path class="st0" d="M613.3,133.4c0,0.6,0,1,0,1.4s-0.1,0.7-0.2,0.9c-0.1,0.2-0.2,0.4-0.3,0.5c-0.1,0.1-0.3,0.2-0.5,0.2
		c-0.2,0-0.4-0.1-0.7-0.2c-0.3-0.1-0.6-0.2-1-0.3c-0.4-0.1-0.8-0.2-1.2-0.3c-0.5-0.1-0.9-0.2-1.5-0.2c-0.6,0-1.2,0.1-1.9,0.4
		c-0.6,0.3-1.2,0.7-1.9,1.2c-0.7,0.6-1.4,1.3-2.1,2.3c-0.7,1-1.5,2.1-2.4,3.5v22.4c0,0.2-0.1,0.4-0.2,0.5s-0.3,0.3-0.5,0.4
		c-0.2,0.1-0.5,0.2-0.9,0.2c-0.4,0-0.9,0.1-1.5,0.1c-0.6,0-1.1,0-1.5-0.1c-0.4-0.1-0.7-0.1-1-0.2c-0.2-0.1-0.4-0.2-0.5-0.4
		c-0.1-0.1-0.1-0.3-0.1-0.5v-34c0-0.2,0-0.4,0.1-0.5c0.1-0.1,0.2-0.3,0.5-0.4s0.5-0.2,0.9-0.2c0.4,0,0.8-0.1,1.4-0.1
		c0.6,0,1,0,1.4,0.1c0.4,0,0.6,0.1,0.9,0.2c0.2,0.1,0.3,0.2,0.4,0.4c0.1,0.1,0.1,0.3,0.1,0.5v5c0.9-1.4,1.8-2.5,2.6-3.3
		c0.8-0.9,1.6-1.5,2.3-2c0.7-0.5,1.5-0.8,2.2-1s1.4-0.3,2.2-0.3c0.3,0,0.7,0,1.1,0.1c0.4,0,0.9,0.1,1.3,0.2c0.5,0.1,0.9,0.2,1.2,0.3
		c0.4,0.1,0.6,0.3,0.8,0.4s0.3,0.2,0.3,0.4c0,0.1,0.1,0.3,0.1,0.4c0,0.2,0.1,0.4,0.1,0.8C613.3,132.4,613.3,132.8,613.3,133.4z"/>
	<path class="st0" d="M642.3,165.2c0,0.3-0.1,0.5-0.3,0.7c-0.2,0.2-0.5,0.3-0.8,0.3c-0.4,0.1-0.9,0.1-1.5,0.1c-0.7,0-1.2,0-1.6-0.1
		c-0.4-0.1-0.7-0.2-0.9-0.3c-0.2-0.2-0.3-0.4-0.3-0.7v-3.4c-1.5,1.6-3.1,2.8-5,3.7c-1.8,0.9-3.8,1.3-5.8,1.3c-1.8,0-3.4-0.2-4.9-0.7
		c-1.4-0.5-2.7-1.1-3.7-2s-1.8-2-2.4-3.2c-0.6-1.3-0.9-2.7-0.9-4.4c0-1.9,0.4-3.6,1.2-5s1.9-2.6,3.4-3.5c1.5-0.9,3.2-1.6,5.4-2.1
		s4.5-0.7,7.1-0.7h4.7v-2.6c0-1.3-0.1-2.5-0.4-3.5c-0.3-1-0.7-1.8-1.3-2.5c-0.6-0.7-1.4-1.2-2.4-1.5c-1-0.3-2.2-0.5-3.6-0.5
		c-1.5,0-2.9,0.2-4.1,0.5c-1.2,0.4-2.3,0.8-3.2,1.2c-0.9,0.4-1.7,0.8-2.3,1.2s-1.1,0.5-1.4,0.5c-0.2,0-0.4,0-0.5-0.2
		c-0.2-0.1-0.3-0.3-0.4-0.5c-0.1-0.2-0.2-0.5-0.2-0.8c-0.1-0.3-0.1-0.7-0.1-1c0-0.6,0-1.1,0.1-1.5c0.1-0.4,0.3-0.7,0.6-1
		c0.3-0.3,0.9-0.7,1.8-1.2c0.8-0.4,1.8-0.8,2.9-1.2c1.1-0.4,2.3-0.7,3.6-0.9c1.3-0.2,2.6-0.4,3.9-0.4c2.4,0,4.5,0.3,6.2,0.8
		c1.7,0.6,3.1,1.4,4.2,2.4c1.1,1.1,1.8,2.4,2.3,4c0.5,1.6,0.7,3.4,0.7,5.6V165.2z M636.1,149.7h-5.3c-1.7,0-3.2,0.1-4.5,0.4
		c-1.3,0.3-2.3,0.7-3.1,1.3c-0.8,0.6-1.4,1.2-1.8,2s-0.6,1.7-0.6,2.7c0,1.8,0.6,3.2,1.7,4.2s2.7,1.6,4.7,1.6c1.6,0,3.2-0.4,4.6-1.2
		c1.4-0.8,2.9-2.1,4.4-3.8V149.7z"/>
	<path class="st0" d="M702,165.2c0,0.2-0.1,0.4-0.2,0.5s-0.3,0.3-0.5,0.4c-0.2,0.1-0.5,0.2-0.9,0.2c-0.4,0-0.9,0.1-1.5,0.1
		c-0.6,0-1.1,0-1.5-0.1c-0.4-0.1-0.7-0.1-1-0.2c-0.2-0.1-0.4-0.2-0.5-0.4c-0.1-0.1-0.2-0.3-0.2-0.5v-20.7c0-1.4-0.1-2.7-0.4-3.9
		c-0.3-1.2-0.7-2.2-1.2-3.1c-0.6-0.9-1.3-1.5-2.1-2s-1.9-0.7-3-0.7c-1.4,0-2.9,0.6-4.3,1.7c-1.4,1.1-3,2.7-4.8,4.9v23.8
		c0,0.2-0.1,0.4-0.2,0.5s-0.3,0.3-0.5,0.4c-0.2,0.1-0.6,0.2-1,0.2c-0.4,0-0.9,0.1-1.5,0.1c-0.6,0-1.1,0-1.5-0.1
		c-0.4-0.1-0.7-0.1-1-0.2c-0.2-0.1-0.4-0.2-0.5-0.4c-0.1-0.1-0.1-0.3-0.1-0.5v-20.7c0-1.4-0.1-2.7-0.4-3.9c-0.3-1.2-0.7-2.2-1.2-3.1
		c-0.6-0.9-1.3-1.5-2.1-2c-0.8-0.5-1.8-0.7-3-0.7c-1.4,0-2.9,0.6-4.3,1.7c-1.5,1.1-3,2.7-4.8,4.9v23.8c0,0.2-0.1,0.4-0.2,0.5
		s-0.3,0.3-0.5,0.4c-0.2,0.1-0.5,0.2-0.9,0.2c-0.4,0-0.9,0.1-1.5,0.1c-0.6,0-1.1,0-1.5-0.1c-0.4-0.1-0.7-0.1-1-0.2
		c-0.2-0.1-0.4-0.2-0.5-0.4c-0.1-0.1-0.1-0.3-0.1-0.5v-34c0-0.2,0-0.4,0.1-0.5c0.1-0.1,0.2-0.3,0.5-0.4s0.5-0.2,0.9-0.2
		c0.4,0,0.8-0.1,1.4-0.1c0.6,0,1,0,1.4,0.1c0.4,0,0.6,0.1,0.9,0.2c0.2,0.1,0.3,0.2,0.4,0.4c0.1,0.1,0.1,0.3,0.1,0.5v4.5
		c1.9-2.1,3.8-3.7,5.6-4.7c1.8-1,3.6-1.5,5.5-1.5c1.4,0,2.7,0.2,3.8,0.5c1.1,0.3,2.1,0.8,3,1.4c0.9,0.6,1.6,1.3,2.2,2.1
		c0.6,0.8,1.1,1.7,1.5,2.7c1.1-1.2,2.2-2.3,3.2-3.1c1-0.9,2-1.5,2.9-2.1c0.9-0.5,1.9-0.9,2.8-1.2c0.9-0.2,1.8-0.4,2.7-0.4
		c2.2,0,4,0.4,5.5,1.2c1.5,0.8,2.7,1.8,3.6,3.1c0.9,1.3,1.6,2.8,2,4.5c0.4,1.7,0.6,3.5,0.6,5.5V165.2z"/>
	<path class="st0" d="M761.7,165.2c0,0.2-0.1,0.4-0.2,0.5s-0.3,0.3-0.5,0.4c-0.2,0.1-0.5,0.2-0.9,0.2c-0.4,0-0.9,0.1-1.5,0.1
		c-0.6,0-1.1,0-1.5-0.1c-0.4-0.1-0.7-0.1-1-0.2c-0.2-0.1-0.4-0.2-0.5-0.4c-0.1-0.1-0.2-0.3-0.2-0.5v-20.7c0-1.4-0.1-2.7-0.4-3.9
		c-0.3-1.2-0.7-2.2-1.2-3.1c-0.6-0.9-1.3-1.5-2.1-2s-1.9-0.7-3-0.7c-1.4,0-2.9,0.6-4.3,1.7c-1.4,1.1-3,2.7-4.8,4.9v23.8
		c0,0.2-0.1,0.4-0.2,0.5s-0.3,0.3-0.5,0.4c-0.2,0.1-0.6,0.2-1,0.2c-0.4,0-0.9,0.1-1.5,0.1c-0.6,0-1.1,0-1.5-0.1
		c-0.4-0.1-0.7-0.1-1-0.2c-0.2-0.1-0.4-0.2-0.5-0.4c-0.1-0.1-0.1-0.3-0.1-0.5v-20.7c0-1.4-0.1-2.7-0.4-3.9c-0.3-1.2-0.7-2.2-1.2-3.1
		c-0.6-0.9-1.3-1.5-2.1-2c-0.8-0.5-1.8-0.7-3-0.7c-1.4,0-2.9,0.6-4.3,1.7c-1.5,1.1-3,2.7-4.8,4.9v23.8c0,0.2-0.1,0.4-0.2,0.5
		s-0.3,0.3-0.5,0.4c-0.2,0.1-0.5,0.2-0.9,0.2c-0.4,0-0.9,0.1-1.5,0.1c-0.6,0-1.1,0-1.5-0.1c-0.4-0.1-0.7-0.1-1-0.2
		c-0.2-0.1-0.4-0.2-0.5-0.4c-0.1-0.1-0.1-0.3-0.1-0.5v-34c0-0.2,0-0.4,0.1-0.5c0.1-0.1,0.2-0.3,0.5-0.4s0.5-0.2,0.9-0.2
		c0.4,0,0.8-0.1,1.4-0.1c0.6,0,1,0,1.4,0.1c0.4,0,0.6,0.1,0.9,0.2c0.2,0.1,0.3,0.2,0.4,0.4c0.1,0.1,0.1,0.3,0.1,0.5v4.5
		c1.9-2.1,3.8-3.7,5.6-4.7c1.8-1,3.6-1.5,5.5-1.5c1.4,0,2.7,0.2,3.8,0.5c1.1,0.3,2.1,0.8,3,1.4c0.9,0.6,1.6,1.3,2.2,2.1
		c0.6,0.8,1.1,1.7,1.5,2.7c1.1-1.2,2.2-2.3,3.2-3.1c1-0.9,2-1.5,2.9-2.1c0.9-0.5,1.9-0.9,2.8-1.2c0.9-0.2,1.8-0.4,2.7-0.4
		c2.2,0,4,0.4,5.5,1.2c1.5,0.8,2.7,1.8,3.6,3.1c0.9,1.3,1.6,2.8,2,4.5c0.4,1.7,0.6,3.5,0.6,5.5V165.2z"/>
	<path class="st0" d="M799.9,146.7c0,1-0.2,1.7-0.7,2.1c-0.5,0.4-1.1,0.6-1.7,0.6h-22.4c0,1.9,0.2,3.6,0.6,5.1s1,2.8,1.9,3.9
		c0.9,1.1,2,1.9,3.5,2.5c1.4,0.6,3.2,0.9,5.2,0.9c1.6,0,3.1-0.1,4.3-0.4c1.3-0.3,2.4-0.6,3.3-0.9c0.9-0.3,1.7-0.6,2.3-0.9
		c0.6-0.3,1-0.4,1.3-0.4c0.2,0,0.3,0,0.5,0.1c0.1,0.1,0.2,0.2,0.3,0.4c0.1,0.2,0.1,0.4,0.2,0.7c0,0.3,0.1,0.7,0.1,1.2
		c0,0.3,0,0.6,0,0.8c0,0.2-0.1,0.5-0.1,0.6c0,0.2-0.1,0.4-0.2,0.5c-0.1,0.2-0.2,0.3-0.3,0.4c-0.1,0.1-0.5,0.4-1.2,0.7
		c-0.7,0.3-1.6,0.6-2.6,0.9c-1.1,0.3-2.3,0.6-3.8,0.8c-1.4,0.2-2.9,0.4-4.6,0.4c-2.8,0-5.2-0.4-7.4-1.2c-2.1-0.8-3.9-1.9-5.3-3.5
		c-1.4-1.5-2.5-3.5-3.2-5.8c-0.7-2.3-1.1-5-1.1-8.1c0-2.9,0.4-5.5,1.1-7.9s1.8-4.3,3.3-5.9c1.4-1.6,3.1-2.9,5.2-3.7
		c2-0.9,4.3-1.3,6.8-1.3c2.7,0,4.9,0.4,6.8,1.3c1.9,0.9,3.4,2,4.6,3.5c1.2,1.4,2.1,3.2,2.7,5.1c0.6,2,0.9,4,0.9,6.3V146.7z
		 M793.6,144.9c0.1-3.3-0.7-5.8-2.2-7.7c-1.5-1.9-3.8-2.8-6.8-2.8c-1.5,0-2.9,0.3-4.1,0.9c-1.2,0.6-2.1,1.3-2.9,2.3
		c-0.8,1-1.4,2.1-1.8,3.3c-0.4,1.3-0.7,2.6-0.7,4H793.6z"/>
</g>
</svg>
